<?xml version="1.0" encoding="UTF-8"?>
<svg width="178px" height="189px" viewBox="0 0 178 189" version="1.1" xmlns="http://www.w3.org/2000/svg" xmlns:xlink="http://www.w3.org/1999/xlink">
    <title>Frame 2</title>
    <defs>
        <path d="M177.999829,188.999976 L93.1001519,188.999247 L1.91226681e-05,188.999976 L1.91226681e-05,0 L177.999829,0 Z" id="path-1"></path>
        <polygon id="path-2" points="-2.24435607e-15 0 177.99981 0 177.99981 188.999976 -2.24435607e-15 188.999976"></polygon>
    </defs>
    <g id="Frame-2" stroke="none" fill="none" xlink:href="#path-1" fill-rule="evenodd">
        <path d="M163.400325,149.220438 C162.767791,148.6506 161.562267,148.739035 161.108012,149.348455 C160.702248,149.892262 160.727564,150.893578 160.999618,151.547929 C161.863915,153.625804 163.070152,155.307147 164.660403,154.546531 C166.15046,153.834056 165.606709,151.208808 163.400325,149.220438 L163.400325,149.220438 Z M21.5635449,152.505028 C23.1053033,152.352406 24.2683967,151.188839 24.7797014,149.986046 C25.1291286,149.164096 25.021448,148.153507 24.52084,147.46528 C23.5641939,146.149091 20.4471607,146.06743 18.8233938,148.076483 C18.2482652,148.101445 17.3033855,148.351061 17.0805365,148.770772 C16.1566938,150.510596 19.1371652,152.745373 21.5635449,152.505028 L21.5635449,152.505028 Z M33.6187834,144.968763 C33.6940172,144.594339 33.3082211,143.76918 32.9605767,143.595875 C31.4412814,142.838112 29.8250024,142.76608 28.5175028,143.86867 C28.0411408,144.270195 28.1381247,145.347466 28.5574373,145.745426 C28.879053,146.050671 29.7333669,146.252503 30.1737164,146.104516 C31.9654223,145.502942 33.3310408,146.401916 33.6187834,144.968763 L33.6187834,144.968763 Z M149.648226,142.663737 C149.645016,142.30536 148.892678,141.566497 148.603866,141.437766 C148.069742,141.199561 147.12094,141.43634 146.85566,141.904905 C146.563283,142.42054 146.751189,143.300258 147.241813,143.674326 C148.101475,144.329746 149.659279,143.788436 149.648226,142.663737 L149.648226,142.663737 Z M43.4697781,141.209546 C43.4697781,140.819431 43.1535108,140.503132 42.7637925,140.503132 C42.3737176,140.503132 42.0578069,140.819431 42.0578069,141.209546 C42.0578069,141.599303 42.3737176,141.915602 42.7637925,141.915602 C43.1535108,141.915602 43.4697781,141.599303 43.4697781,141.209546 L43.4697781,141.209546 Z M58.933358,138.430249 C59.3013263,138.059391 59.3936749,136.880134 59.1412316,136.508919 C58.0940196,134.967718 54.9662896,134.638581 52.8476198,136.798117 C52.513168,137.139021 52.268569,138.119656 52.4215325,138.550778 C53.032317,140.276695 56.6816919,140.701042 58.933358,138.430249 L58.933358,138.430249 Z M132.295243,139.728253 C133.331758,140.384386 134.570798,140.607614 135.811621,140.084847 C136.588206,139.757493 137.614381,138.742269 137.614738,137.547678 C137.615807,135.995066 136.497996,134.918151 135.371628,134.078728 C133.452988,132.649142 131.301158,133.705017 131.220219,134.111535 L130.967776,135.382437 C130.631541,137.07733 130.573779,138.6385 132.295243,139.728253 L132.295243,139.728253 Z M116.535363,138.293674 L116.986053,135.416314 L117.054155,128.113618 L117.154705,125.983323 L116.728617,129.177695 L116.538215,131.253075 L116.535363,138.293674 Z M69.1373455,138.437738 L68.0901335,130.467141 L67.9221946,127.334459 L67.1277825,118.162496 L67.0650282,112.139617 L67.4693654,107.122335 C65.9379472,111.174673 65.7479016,115.377851 66.29094,119.737573 L67.3246027,128.031958 L68.4466919,136.287117 L69.2425302,141.498744 C69.3459321,140.506342 69.2853172,139.564576 69.1373455,138.437738 L69.1373455,138.437738 Z M116.742523,111.626121 C116.441231,107.13018 115.636836,102.684518 114.739378,98.2146077 C114.665571,101.567308 115.442511,104.66433 115.985193,107.911835 L116.742523,111.626121 Z M74.9948864,86.6217253 C71.4888479,87.2143851 69.9082247,92.5501064 70.2180739,96.1884386 C71.2356915,92.743024 72.2629362,89.5033643 74.9948864,86.6217253 L74.9948864,86.6217253 Z M111.580984,88.2752533 C110.249595,86.1274855 108.886829,84.4703915 107.289804,82.8300575 C105.66782,81.1644053 103.049969,79.8072072 100.562261,80.4619144 C103.260695,81.7948641 105.635017,82.5947052 107.559719,84.65903 C108.800185,85.9887703 110.00464,87.3131617 111.580984,88.2752533 L111.580984,88.2752533 Z M128.035083,77.3174654 L127.319114,78.4118535 L128.086428,78.9139383 L128.802397,77.8199068 L128.035083,77.3174654 Z M81.9830739,79.6182122 C84.3802158,78.4125666 86.9470795,77.8284651 89.4326479,77.306411 C91.3741083,76.8988236 89.6415911,75.1796822 85.0052626,76.8695829 C82.3613823,77.8331008 80.0391177,79.3543323 78.9405613,82.1389776 C80.0972367,81.3601756 80.7693492,80.2287017 81.9830739,79.6182122 L81.9830739,79.6182122 Z M54.4999113,72.0883658 C54.4999113,71.7503143 54.2260744,71.4760933 53.8880571,71.4760933 C53.5500398,71.4760933 53.2762029,71.7503143 53.2762029,72.0883658 C53.2762029,72.4264172 53.5500398,72.7002817 53.8880571,72.7002817 C54.2260744,72.7002817 54.4999113,72.4264172 54.4999113,72.0883658 L54.4999113,72.0883658 Z M127.389,68.576268 C127.389,67.8930332 126.835264,67.3388856 126.152455,67.3388856 C125.469289,67.3388856 124.915554,67.8930332 124.915554,68.576268 C124.915554,69.2595028 125.469289,69.8132938 126.152455,69.8132938 C126.835264,69.8132938 127.389,69.2595028 127.389,68.576268 L127.389,68.576268 Z M68.6007251,63.4598522 C68.6135612,63.1742201 68.3161916,62.6083049 68.1329206,62.4289379 C67.9863751,62.2852304 67.2789633,62.4325039 67.2023032,62.6229252 C67.1006841,62.875394 67.4668695,63.5204732 67.6861529,63.6809407 C67.8619362,63.8096713 68.5910981,63.6759484 68.6007251,63.4598522 L68.6007251,63.4598522 Z M65.7486147,60.2587047 C65.9860826,59.216736 65.4073884,58.1736975 64.501017,57.8855692 C63.5415184,57.5806811 62.7856147,58.3851579 62.0168748,58.9539259 C60.8673306,59.8044035 59.8568442,60.4462733 59.4471587,62.0045906 C59.1997071,62.9463563 59.4225561,64.0225581 60.209837,64.6312646 C62.0707151,66.0701229 65.0023381,63.5372332 65.7486147,60.2587047 L65.7486147,60.2587047 Z M120.925666,57.1488453 C120.662526,56.8022356 119.664876,56.5583251 119.282645,56.69811 C117.735895,57.2640253 117.547275,60.9262493 119.347182,63.2006081 C119.711585,63.661328 120.763788,64.0000926 121.261901,63.8185861 C123.005114,63.1824218 122.915618,59.7715968 120.925666,57.1488453 L120.925666,57.1488453 Z M122.807938,56.2488012 C122.807938,55.932502 122.551929,55.6764672 122.236018,55.6764672 C121.920107,55.6764672 121.663742,55.932502 121.663742,56.2488012 C121.663742,56.5647438 121.920107,56.8207785 122.236018,56.8207785 C122.551929,56.8207785 122.807938,56.5647438 122.807938,56.2488012 L122.807938,56.2488012 Z M59.6739298,151.128931 L55.4768812,150.039535 C52.8754313,149.364502 50.0871449,149.505 47.9007289,151.169226 L55.1288802,152.821684 C57.3691365,154.034105 59.7427455,154.244852 62.2215393,154.540826 L67.7888417,155.205874 L74.5474056,155.755386 L80.105081,156.749214 L91.0703205,158.29826 C92.6384642,158.520062 93.8971153,159.540278 94.6177197,160.974857 C97.9572454,167.624986 97.3981619,175.777446 96.3270606,183.134344 C96.1719577,184.199491 95.5365707,185.139117 94.7656915,185.594488 C93.986968,186.054852 92.6085133,186.447819 91.8233718,185.760661 C88.8974538,183.199957 87.0030592,179.823009 85.7722197,176.183607 C84.265404,171.727247 80.0868965,167.291926 75.6238554,167.327229 L63.6163957,167.42244 L50.5200067,167.183165 L41.5664695,166.846183 C32.7844368,166.515264 22.1468744,164.785425 14.5632344,160.331918 C12.1703712,158.926579 9.69549955,156.758129 8.71924273,154.085455 C7.55793212,150.906059 12.5604461,146.03926 15.6910286,143.830158 C17.4713245,142.573519 19.5782279,141.87816 21.6601722,141.178165 C25.247506,139.971807 28.6904336,138.512266 32.4706655,137.93387 C38.4255468,137.023128 44.0848413,135.913406 49.9181362,134.426051 L56.4228306,132.767887 C56.7294708,132.689437 57.332411,132.166313 57.3894603,131.855719 C57.4461531,131.545482 57.143435,130.910744 56.996533,130.578755 C57.2093983,128.337203 57.2047631,126.274304 57.0999349,123.976767 C56.6428271,113.958962 57.6005429,104.078089 59.0831126,94.1822388 L59.3829781,91.3198559 C60.8002977,89.1574677 62.7802663,87.3659377 63.1378943,84.3320329 L57.7392441,88.9895118 C55.2176633,91.1647373 53.9572294,94.4222268 52.8847018,97.5192487 L51.1229469,102.604641 C50.2975143,104.988474 49.2346138,107.092737 48.6445097,109.575704 C47.80945,113.089585 46.0580353,116.132761 44.2452925,119.236201 C43.2191175,120.992785 42.2410779,122.740454 40.9610334,124.292353 L36.6744886,129.489359 C35.0111439,131.5059 32.8443386,133.424021 30.6215538,134.822584 C28.2083667,136.341319 25.2603421,136.764954 22.5326706,137.208557 L16.2312145,138.233766 C12.5518887,138.832488 8.98808775,138.933404 5.26419212,138.714455 C3.83760208,138.630299 2.15001132,137.100509 2.93515285,135.665573 C3.86648331,133.964262 5.87176759,132.898044 7.64778483,132.157398 L20.2214592,126.914748 L23.7781289,124.672839 C27.1928885,122.520079 30.3391595,120.172618 32.9509496,117.066681 C34.1739448,115.611776 34.7301759,113.790649 35.6729162,112.17706 C37.8917789,108.379686 39.3326313,104.53132 40.3195849,100.229722 L42.4122259,91.1080388 L44.3297969,84.1369758 C44.9951348,81.7192661 45.7699361,79.3561153 47.0128986,77.1709051 L53.4662485,65.8254991 C55.7250458,61.8544644 58.4837379,58.4529109 61.4948734,55.036737 C62.9036355,53.4381245 64.4571603,52.0723681 66.1697102,50.966569 C68.6934303,54.392371 71.1436994,57.4683539 74.4903563,59.8728696 L79.6822027,63.6028465 C84.2561335,66.8888635 94.9635814,66.9855006 100.531597,64.2322356 C102.974378,63.0244505 105.209999,61.4604276 107.317972,59.7605424 L110.640027,56.5579685 C112.007428,55.2399957 113.439366,54.137406 114.742587,52.7755722 L118.208691,49.1522169 C122.003185,53.2316563 126.66269,57.7757382 128.016186,62.8415176 L131.047288,74.1858538 L133.167385,82.2644989 C135.352374,90.590977 135.008295,96.7140587 141.253415,103.836674 C143.167064,106.019388 146.470577,106.762174 148.993941,105.427798 C150.53249,104.614407 151.580772,102.973359 152.057847,101.326963 L154.827236,91.7670252 C155.846636,88.2474389 157.219743,84.9375301 159.396175,81.992774 C161.267393,79.4605975 163.872409,77.8035035 166.709187,76.5422293 C169.254301,75.4103988 171.978407,75.5212996 174.321352,77.1117104 C174.946398,77.5360577 175.495498,78.9866836 174.793791,79.5789868 C169.982036,83.6388135 166.531621,88.6275685 164.167282,94.4265059 L159.437892,107.500325 L157.443661,113.052855 C156.756217,114.96741 155.13245,116.107443 153.444146,117.140496 C150.149547,119.155968 146.435635,119.57461 142.712452,118.250931 C140.627299,117.509928 138.777117,116.229041 136.867391,115.038729 C134.42247,113.514288 132.461399,111.616493 131.122879,109.037246 L128.079297,103.174122 C127.390782,101.847591 126.846674,100.244699 126.538608,98.7887246 C125.992004,96.2069815 124.752607,94.291 123.497522,92.0455254 L117.315869,80.9857515 C116.949684,80.3299745 116.518961,79.802928 115.838291,79.2765948 C116.366711,82.3753997 117.144721,84.9624917 118.447585,87.5952279 L122.784405,96.3606737 C123.581669,97.971767 124.20422,100.134155 124.38036,101.949934 L125.341285,111.84721 L125.926754,126.93436 C125.941729,127.319482 126.246943,128.030175 126.487977,128.266597 C126.728653,128.503019 127.506307,128.533686 127.948796,128.557578 C129.940175,131.464178 134.216736,133.301709 137.820828,134.310871 L146.007765,136.602703 L156.321929,140.413984 C158.674501,141.283361 160.615961,142.867709 162.746754,144.192814 C168.249163,147.613624 171.095568,151.353585 170.912654,158.085017 C170.308287,159.972114 168.090851,161.512245 166.290231,162.150906 L158.957965,164.750478 C155.89905,165.835239 152.713558,165.463311 149.459606,165.164841 C141.899856,164.471265 134.647102,164.88848 127.229618,166.247462 C122.465998,167.120405 118.231511,168.712242 114.192061,171.369583 C112.788291,172.293162 111.300016,173.362589 110.710982,175.002566 C109.601016,178.092813 108.168007,180.837876 105.849665,183.219213 C105.16436,183.923131 103.796958,184.908044 102.830685,184.68232 C101.479686,184.177739 100.875319,182.384426 100.818983,181.023662 L100.373998,170.262357 C100.213903,166.392239 100.139383,162.586307 100.584368,158.812469 C100.789389,157.071219 101.764932,156.208617 103.423998,155.94652 L118.959603,153.491725 L125.324883,152.709714 L134.014567,150.677482 C136.899124,150.002806 139.72271,149.633374 142.381922,148.283308 L133.272213,148.784679 L124.349696,149.959658 L114.300811,151.452005 L102.931948,153.198961 C101.533882,153.447151 100.335133,153.936042 99.3160894,154.888505 C96.6115942,155.306434 93.889271,155.516111 91.1427019,155.135982 L79.6547477,153.545571 L73.2969554,152.394484 L66.8418227,151.962648 L59.6739298,151.128931 Z" id="Fill-1" fill="#FFFAF0"></path>
        <path d="M99.3233988,52.7475438 C100.058622,52.7536059 100.616636,51.767266 100.489701,51.2487778 C100.393431,50.8543844 99.697072,50.2114448 99.2716979,50.214996 L94.7648001,50.2542361 C91.6620291,50.2813373 86.7233391,49.8512845 86.4865844,51.5180065 C86.4402318,51.8457167 87.0777582,52.4729662 87.4118534,52.4897261 L91.2719543,52.6830003 L99.3233988,52.7475438 Z M96.0444881,42.0967837 C97.4546764,41.5073332 98.2440967,40.2403535 99.0520579,39.1919661 L100.573136,37.2182163 C101.245605,36.3452733 101.397142,34.9895016 100.959289,33.9182922 C99.8749946,31.2662999 92.971668,30.845162 89.7505197,32.4459141 C87.5241692,33.5524264 87.2439144,36.8309548 88.7899515,38.4406218 L91.5247542,41.2869579 C92.5790973,42.3845553 94.4902501,42.7468552 96.0444881,42.0967837 L96.0444881,42.0967837 Z M64.1239565,46.8530392 L58.5356172,44.6813795 C58.3512765,43.3862289 59.5293454,42.379563 58.7395686,40.6400957 C62.160033,38.7537116 65.8325842,37.4902978 69.7055212,36.6077268 L74.6053464,35.0265874 C77.3729524,34.1336751 79.3229702,32.9044944 81.414185,30.9300315 C84.2402667,28.2619925 86.1039973,24.4079207 84.5469069,20.4361728 C83.6170026,18.0637506 80.9089418,16.1288696 78.2853853,15.9491461 C73.5274704,15.6232188 68.8258917,16.85026 64.8613192,19.3592579 C62.5012594,20.852675 60.5088112,22.6766551 58.6204781,24.6532576 C57.8285619,25.4819829 57.5910941,26.4258882 57.0719451,27.6465107 L56.9974244,25.146071 C56.9749612,24.3972229 56.5438821,23.7289651 55.8282695,23.3188816 L57.4078231,20.2140145 C57.9508614,19.1467276 58.0471322,17.8116384 58.0638905,16.63666 L62.4206772,6.45624776 C63.0571339,4.9692493 64.114686,4.13481851 65.7805267,4.50425027 C67.5419251,4.89436449 69.1196958,5.79084269 70.8030079,6.51722539 L74.5304691,8.12546593 L68.5937722,11.4314522 C69.0334087,12.3514656 69.8898619,12.3635898 70.5847942,12.0940045 L80.0364435,8.42750135 C86.7511507,5.82293619 99.3590547,6.85385046 106.448861,9.66631014 L112.950347,12.2452005 C111.815778,10.3894835 110.255478,9.31898723 108.800364,8.34762421 C113.302983,7.07957469 115.996068,4.13731467 120.67554,2.73090654 C123.862102,1.77309411 125.313652,6.55930353 125.242696,10.2732337 C125.275143,13.5931272 125.485869,16.7874994 126.27422,19.9394369 C125.936916,22.3913797 125.863465,24.7973218 126.263167,27.2524739 C125.936202,27.4093754 125.265873,27.6654102 125.258028,27.9931204 L125.212389,29.8859232 L121.876785,25.0515735 L117.695069,20.333117 C114.750253,17.0103709 110.510418,15.2833844 106.128672,14.9749303 C103.118963,14.7634698 101.094424,16.220871 99.7523386,18.7387837 C97.7188862,22.5532735 97.7923372,26.627364 100.047212,30.3541316 C100.945739,31.8386339 101.892045,32.9144791 103.366058,33.9129432 C105.351731,35.2580171 107.251474,36.3484827 109.687124,36.8445054 L114.648634,37.8554504 L118.868146,39.875914 L123.095145,42.8673841 L119.727095,44.9181582 C117.646933,46.1847813 115.81565,47.7741224 114.135903,49.5406908 L110.566041,53.2956294 L105.875159,57.5498 C103.917653,59.3252833 101.544401,60.822623 99.1690091,62.007586 C94.7013327,64.2363007 84.8271617,64.2081298 80.9581469,61.4919506 L76.038711,58.0379777 C70.3230803,54.0252214 67.6984542,48.2419742 64.1239565,46.8530392 L64.1239565,46.8530392 Z" id="Fill-3" fill="#FFFAF0"></path>
        <path d="M40.2350092,84.3702955 C37.5708051,85.0503209 35.39259,86.9149528 33.9014629,89.3119801 C31.8576703,85.1405393 29.6651929,81.1737837 26.9425132,77.2990295 L28.0838565,74.7486666 C29.2348269,72.1776213 31.6130713,70.9405955 34.4847924,71.4762003 L37.9419823,78.8409434 L40.2350092,84.3702955 Z" id="Fill-5" fill="#FFFAF0"></path>
        <path d="M24.8813562,60.3770227 C21.9015979,61.3783396 20.1812038,63.7222343 19.4552509,66.9002032 L16.6052799,63.5125568 C14.6256678,61.1593907 13.7399768,57.1423553 14.8478037,54.1815524 C15.5163506,52.5358694 18.1409768,52.9591469 19.257361,53.5190001 L22.9930231,55.3925468 C24.6856057,56.241598 25.8483425,58.1590058 27.0328294,59.6538493 L24.8813562,60.3770227 Z" id="Fill-7" fill="#FFFAF0"></path>
        <path d="M68.04264,26.116186 C67.8543772,25.6340704 68.1196566,24.9458433 68.5022437,24.6958707 C69.5904599,23.9844649 70.5877536,26.2934134 71.6681255,26.3365613 C73.4170443,26.4060972 74.6471707,25.3138487 75.6009643,24.1028543 C76.1536298,23.4014332 77.3088789,23.2905323 77.911106,23.8361217 C79.5947746,25.3605626 76.0545066,28.6423004 72.780231,29.0003211 C70.6801022,29.2299679 68.8648636,28.2222322 68.04264,26.116186" id="Fill-9" fill="#FFFAF0"></path>
        <path d="M113.106377,26.1990229 C111.622024,27.768038 109.262321,28.4712421 107.201413,28.0936087 C104.530078,27.603648 102.645311,24.3675543 104.032679,23.6183495 C104.430955,23.4029665 105.266015,23.6204891 105.61045,23.9938434 C107.017786,25.5189974 109.289419,25.9818569 110.780903,24.485587 C111.38206,23.8825859 112.194657,23.5780544 112.869265,23.9927736 C113.454734,24.3522207 113.770288,25.4976018 113.106377,26.1990229" id="Fill-11" fill="#FFFAF0"></path>
        <path d="M55.1580467,130.654602 L53.2454676,130.91135 L50.315984,127.322585 C50.7481328,125.01221 52.1351448,123.361535 54.2103146,122.26679 L54.3985774,126.927835 L55.1580467,130.654602 Z" id="Fill-13" fill="#FFFAF0"></path>
        <path d="M69.1373098,138.437738 C69.2852816,139.564576 69.3458965,140.506342 69.2424945,141.498744 L68.4466563,136.287117 L67.3245671,128.031958 L66.2912609,119.737573 C65.747866,115.377851 65.9379116,111.174673 67.4693298,107.122335 L67.0649926,112.139617 L67.1277469,118.162496 L67.9221589,127.334459 L68.0900979,130.467141 L69.1373098,138.437738 Z" id="Fill-15" fill="#E65024"></path>
        <path d="M81.9832522,79.6181408 C80.7691709,80.228987 80.0970584,81.3601043 78.9407396,82.1389063 C80.0389394,79.3546176 82.361204,77.8330295 85.0050844,76.8695116 C89.6417694,75.1796109 91.37393,76.8987523 89.4324696,77.3063396 C86.9469012,77.8283938 84.3800375,78.4124953 81.9832522,79.6181408" id="Fill-17" fill="#E65024"></path>
        <path d="M111.58102,88.2752176 C110.004675,87.3131261 108.800221,85.9887346 107.559755,84.6589943 C105.635052,82.5946696 103.26073,81.7948284 100.562297,80.4618787 C103.050004,79.8071715 105.667856,81.1643696 107.28984,82.8300218 C108.886865,84.4703559 110.249631,86.1274498 111.58102,88.2752176" id="Fill-19" fill="#E65024"></path>
        <path d="M74.995029,86.6216183 C72.2630788,89.5032573 71.2358341,92.742917 70.21786,96.1886882 C69.9080107,92.5499994 71.4889906,87.2142781 74.995029,86.6216183" id="Fill-21" fill="#E65024"></path>
        <path d="M116.742666,111.625943 L115.984979,107.912013 C115.442297,104.664152 114.665357,101.567486 114.739164,98.214786 C115.636622,102.68434 116.441017,107.130001 116.742666,111.625943" id="Fill-23" fill="#E65024"></path>
        <polygon id="Fill-25" fill="#E65024" points="116.535327 138.293638 116.53818 131.253039 116.728582 129.17766 117.154669 125.983288 117.05412 128.113582 116.986017 135.416278"></polygon>
        <path d="M132.295136,139.72811 C130.574029,138.638714 130.631434,137.077544 130.968026,135.382651 L131.220469,134.111749 C131.301051,133.704875 133.452881,132.648999 135.371878,134.078942 C136.497889,134.918009 137.6157,135.994924 137.614987,137.547536 C137.614274,138.742127 136.588099,139.757351 135.811871,140.084704 C134.571048,140.607828 133.331651,140.384244 132.295136,139.72811" id="Fill-27" fill="#E65024"></path>
        <path d="M21.5636875,152.505171 C19.1373078,152.745516 16.1564798,150.510382 17.0806791,148.770558 C17.3035281,148.351203 18.2484078,148.101231 18.8231799,148.076626 C20.4473033,146.067573 23.56398,146.149233 24.5209827,147.465066 C25.0212341,148.15365 25.1292712,149.163882 24.7794875,149.986188 C24.2681828,151.188625 23.1054459,152.352549 21.5636875,152.505171" id="Fill-29" fill="#E65024"></path>
        <path d="M58.9335007,138.430356 C56.6818346,140.700792 53.0324596,140.276445 52.4213186,138.550885 C52.2687116,138.119762 52.5133106,137.139128 52.8477624,136.798224 C54.9660757,134.638688 58.0938057,134.967825 59.1413742,136.508669 C59.3938175,136.880241 59.3014689,138.059141 58.9335007,138.430356" id="Fill-31" fill="#E65024"></path>
        <path d="M163.400325,149.220438 C165.606709,151.208808 166.15046,153.834056 164.660403,154.546531 C163.070152,155.307147 161.863915,153.625804 160.999618,151.547929 C160.727564,150.893578 160.702248,149.892262 161.108012,149.348455 C161.562267,148.739035 162.767791,148.6506 163.400325,149.220438" id="Fill-33" fill="#E65024"></path>
        <path d="M33.6187834,144.968728 C33.3310408,146.40188 31.9654223,145.502906 30.174073,146.104481 C29.7333669,146.252467 28.879053,146.050635 28.5574373,145.74539 C28.1381247,145.347431 28.0411408,144.270159 28.5175028,143.868634 C29.8250024,142.766044 31.4412814,142.838076 32.9605767,143.595839 C33.3082211,143.769144 33.6940172,144.594304 33.6187834,144.968728" id="Fill-35" fill="#E65024"></path>
        <path d="M149.648297,142.663702 C149.658994,143.7884 148.101547,144.329711 147.241884,143.674647 C146.750904,143.300223 146.563354,142.420861 146.855732,141.904869 C147.121011,141.436304 148.069813,141.199525 148.603937,141.43773 C148.89275,141.566461 149.644731,142.305324 149.648297,142.663702" id="Fill-37" fill="#E65024"></path>
        <path d="M43.4696711,141.209403 C43.4696711,141.599517 43.1537604,141.91546 42.7636855,141.91546 C42.3739672,141.91546 42.0577,141.599517 42.0577,141.209403 C42.0577,140.819289 42.3739672,140.503346 42.7636855,140.503346 C43.1537604,140.503346 43.4696711,140.819289 43.4696711,141.209403" id="Fill-39" fill="#E65024"></path>
        <g id="Group-43" stroke-width="1" transform="translate(0, 0)">
            <mask id="mask-3" fill="white">
                <use xlink:href="#path-2"></use>
            </mask>
            <g id="Clip-42"></g>
            <path d="M97.8921188,157.811901 L96.0918556,157.832584 L97.6336139,160.266697 L97.8921188,157.811901 Z M35.9261961,134.331589 L41.5409208,133.458646 L50.4780563,131.509502 C48.3497594,129.008705 46.7645009,126.165935 45.2220294,123.096014 C44.3402606,124.621882 43.4370982,125.823961 42.3438902,126.98004 L40.2116712,129.560357 C38.7818721,131.28984 37.520012,132.831397 35.9261961,134.331589 L35.9261961,134.331589 Z M55.157885,130.654745 L54.3987722,126.927977 L54.2101528,122.266933 C52.1349831,123.361321 50.747971,125.011996 50.3161788,127.322371 L53.2453059,130.911493 L55.157885,130.654745 Z M54.7546174,106.580347 L55.8856206,97.7061398 L53.5209255,104.97068 L54.7546174,106.580347 Z M40.2348475,84.3702242 L37.9418206,78.8408721 L34.4849872,71.4761289 C31.6129095,70.9405242 29.2350218,72.17755 28.0840513,74.7489519 L26.9423514,77.2989581 C29.6650311,81.174069 31.8575086,85.140468 33.9013011,89.3119087 C35.3927848,86.9148815 37.5706433,85.0502496 40.2348475,84.3702242 L40.2348475,84.3702242 Z M24.881444,60.3771297 L27.0329173,59.6539563 C25.8484303,58.1587562 24.6856935,56.2413483 22.9927544,55.3926538 L19.2570923,53.519107 C18.1410646,52.9592539 15.5164384,52.5359764 14.8478915,54.1813028 C13.7400646,57.1424623 14.6257556,61.1594977 16.6053677,63.5126638 L19.4549822,66.9003102 C20.1809351,63.7223413 21.9016857,61.3784466 24.881444,60.3771297 L24.881444,60.3771297 Z M59.6736967,151.128966 L66.8419462,151.962327 L73.2970789,152.39452 L79.6545147,153.545606 L91.1428254,155.136017 C93.8893945,155.516147 96.6117177,155.306469 99.3158563,154.888184 C100.335257,153.936077 101.534006,153.447186 102.932071,153.198997 L114.300578,151.452041 L124.349463,149.959694 L133.272336,148.784715 L142.381689,148.283343 C139.722834,149.63341 136.899248,150.002841 134.014691,150.677518 L125.325007,152.709749 L118.959727,153.491404 L103.423765,155.946556 C101.765056,156.208653 100.789512,157.071255 100.584134,158.812505 C100.139506,162.585986 100.214027,166.392275 100.374122,170.262393 L100.819106,181.023697 C100.875443,182.384105 101.479809,184.177775 102.830809,184.682356 C103.796725,184.907723 105.164483,183.923166 105.849788,183.219249 C108.168131,180.837912 109.601139,178.092848 110.710749,175.002602 C111.299783,173.362624 112.788414,172.293198 114.192185,171.369619 C118.231278,168.712277 122.466122,167.12044 127.229741,166.247497 C134.646869,164.888516 141.899623,164.471301 149.45973,165.164877 C152.713681,165.463346 155.898817,165.835274 158.958088,164.750514 L166.289998,162.150941 C168.090974,161.512281 170.308054,159.97215 170.912777,158.085052 C171.095692,151.353621 168.24893,147.613659 162.746877,144.19285 C160.615728,142.867745 158.674624,141.283396 156.322052,140.414019 L146.007888,136.602739 L137.820951,134.310907 C134.216859,133.301745 129.940298,131.464214 127.948563,128.557614 C127.506431,128.533722 126.728777,128.503055 126.487744,128.266633 C126.247067,128.030211 125.941496,127.319518 125.926877,126.934396 L125.341408,111.847246 L124.380484,101.949969 C124.203987,100.134191 123.581436,97.9718026 122.784528,96.3607093 L118.447352,87.5952635 C117.144845,84.9621708 116.366478,82.3754354 115.838415,79.2762738 C116.519085,79.8029637 116.949451,80.3300102 117.315993,80.9857872 L123.497645,92.0455611 C124.75273,94.2910357 125.992127,96.2070172 126.538731,98.7887603 C126.846798,100.244735 127.390549,101.847627 128.07942,103.174158 L131.122646,109.037282 C132.461522,111.616529 134.422593,113.514324 136.867514,115.038765 C138.776884,116.229077 140.627066,117.509607 142.712576,118.250967 C146.435402,119.574289 150.14967,119.156003 153.443913,117.140532 C155.132217,116.107478 156.755984,114.967446 157.443785,113.052891 L159.437659,107.50036 L164.167406,94.4265416 C166.531388,88.6276042 169.98216,83.6388492 174.793558,79.5790224 C175.495622,78.9867192 174.946165,77.5360934 174.321475,77.1117461 C171.978174,75.5213353 169.254068,75.4104344 166.70931,76.5422649 C163.872176,77.8035392 161.267517,79.4606331 159.396298,81.9928096 C157.219866,84.9375658 155.84676,88.2474746 154.827003,91.7670609 L152.05797,101.326999 C151.580895,102.973395 150.532257,104.614442 148.994064,105.427834 C146.470344,106.76221 143.167188,106.019424 141.253539,103.83671 C135.008419,96.7140943 135.352141,90.5910127 133.167151,82.2645345 L131.047055,74.1858894 L128.016309,62.8411966 C126.662814,57.7757738 122.003309,53.231692 118.208458,49.1522526 L114.742354,52.7752512 C113.43949,54.1374417 112.007195,55.2400314 110.64015,56.5580041 L107.317739,59.760578 C105.209766,61.4601067 102.974502,63.0244861 100.53172,64.2322712 C94.9637049,66.9855362 84.2559004,66.8888992 79.6823262,63.6028822 L74.4904798,59.8729052 C71.1438229,57.4683895 68.6935538,54.3924066 66.1698337,50.9666047 C64.4572838,52.0720472 62.903759,53.4381601 61.4949969,55.036416 C58.4838614,58.4529465 55.7251693,61.8541435 53.466372,65.8255348 L47.0126655,77.1709408 C45.7700596,79.3557944 44.9952583,81.7193018 44.3299204,84.1370115 L42.4119929,91.1080745 L40.3197084,100.229758 C39.3327548,104.531356 37.8915459,108.379722 35.6730397,112.177095 C34.7299428,113.790685 34.1740683,115.611812 32.9507165,117.066717 C30.3389265,120.172654 27.193012,122.520115 23.7782525,124.672875 L20.2215827,126.914783 L7.64790833,132.157434 C5.87189109,132.89808 3.86660681,133.964297 2.93527635,135.665609 C2.14977826,137.100545 3.83772559,138.630334 5.26395907,138.714491 C8.98785469,138.933439 12.5520122,138.832167 16.2309814,138.233801 L22.5327941,137.208593 C25.260109,136.764989 28.2081336,136.341355 30.6216773,134.82262 C32.8444621,133.424057 35.0112674,131.505936 36.6746121,129.489395 L40.9608003,124.292389 C42.2408449,122.74049 43.219241,120.992464 44.2450595,119.236237 C46.0581588,116.132796 47.8095735,113.08962 48.6446332,109.57574 C49.2347373,107.092773 50.2972812,104.98851 51.1230704,102.604676 L52.8848253,97.5192844 C53.9573529,94.4222624 55.2177868,91.164773 57.7393676,88.9895474 L63.1380178,84.3320686 C62.7803898,87.3659734 60.8000646,89.1575034 59.3831016,91.3198916 L59.0832361,94.1822744 C57.6006664,104.078124 56.6429506,113.958997 57.0997018,123.976802 C57.20453,126.27434 57.2095218,128.337238 56.9966565,130.57879 C57.143202,130.91078 57.4462766,131.545518 57.3892272,131.855755 C57.3325345,132.166348 56.7295943,132.689472 56.4225975,132.767923 L49.9182597,134.426087 C44.0846082,135.913442 38.4256703,137.023164 32.470789,137.933906 C28.6905571,138.512302 25.2476295,139.971842 21.6602957,141.178201 C19.5779948,141.878196 17.471448,142.573555 15.6911521,143.830193 C12.5605696,146.039295 7.55805562,150.905738 8.71936623,154.08549 C9.69562305,156.758165 12.1704947,158.926615 14.5633579,160.331953 C22.1469979,164.78546 32.7845603,166.5153 41.566593,166.846219 L50.5201302,167.183201 L63.6165192,167.422476 L75.6239789,167.327265 C80.08702,167.291962 84.2655275,171.727283 85.7723432,176.183642 C87.0031827,179.823044 88.8975773,183.199993 91.8234953,185.760697 C92.6086368,186.447854 93.9870915,186.054887 94.765815,185.594524 C95.5366942,185.139153 96.1720812,184.199527 96.3271841,183.134379 C97.3982854,175.777481 97.9573689,167.625021 94.6178432,160.974893 C93.8972388,159.540314 92.6385877,158.520098 91.070444,158.298296 L80.1048479,156.748893 L74.5471726,155.755422 L67.7889652,155.20591 L62.2216628,154.540861 C59.742869,154.244888 57.36926,154.034141 55.1290037,152.82172 L47.9008524,151.168905 C50.0869118,149.505036 52.8755548,149.364181 55.4770047,150.039571 L59.6736967,151.128966 Z M113.106464,26.1989872 C113.770376,25.4975661 113.454822,24.352185 112.869353,23.9927379 C112.194745,23.5780187 111.381792,23.8825503 110.780991,24.4855513 C109.289507,25.9818212 107.017517,25.5189618 105.610538,23.9938077 C105.266102,23.6204534 104.431043,23.4029309 104.03241,23.6183139 C102.645398,24.3675186 104.530166,27.6036124 107.201501,28.093573 C109.262052,28.4712064 111.621755,27.7680024 113.106464,26.1989872 L113.106464,26.1989872 Z M68.0424782,26.1162573 C68.8647018,28.221947 70.6799405,29.2300392 72.7800693,29.0003924 C76.0543448,28.6423717 79.5949694,25.3602773 77.9113008,23.8358364 C77.3090737,23.2906036 76.1538246,23.4015045 75.6011591,24.1029256 C74.6473655,25.31392 73.4168825,26.4061685 71.6683203,26.3366326 C70.5879484,26.2934847 69.5906547,23.9841797 68.502082,24.6955854 C68.1194948,24.945558 67.854572,25.6341417 68.0424782,26.1162573 L68.0424782,26.1162573 Z M64.1239017,46.8529322 C67.698756,48.2422238 70.3230256,54.0251144 76.0386562,58.0378707 L80.9580921,61.4918436 C84.827107,64.2083794 94.7012779,64.2361938 99.1689543,62.0078356 C101.544346,60.822516 103.917599,59.3251763 105.875461,57.549693 L110.565986,53.295879 L114.135848,49.5409404 C115.815951,47.7740154 117.646879,46.185031 119.72704,44.9180512 L123.095091,42.8672771 L118.868091,39.8758071 L114.648936,37.8553434 L109.68707,36.844755 C107.251419,36.3483757 105.351676,35.2579102 103.366003,33.9128363 C101.891991,32.9143721 100.945685,31.8388835 100.047514,30.3540246 C97.792639,26.6276136 97.7188314,22.5531665 99.7522838,18.7390333 C101.094726,16.2211206 103.118908,14.7633629 106.128617,14.9751799 C110.510719,15.2832774 114.750199,17.0102639 117.695014,20.3330101 L121.876731,25.0514666 L125.212334,29.8858162 L125.257974,27.9930134 C125.265818,27.6653032 125.936148,27.409625 126.263468,27.2523669 C125.86341,24.7972148 125.937217,22.3916293 126.274165,19.9393299 C125.485814,16.787749 125.275088,13.5930202 125.242998,10.2731267 C125.313953,6.55955314 123.862048,1.77298713 120.675486,2.73079956 C115.996013,4.1372077 113.303285,7.07982431 108.800309,8.34751724 C110.255424,9.31888026 111.815723,10.3893765 112.950292,12.2450935 L106.448807,9.66620316 C99.3589999,6.85374349 86.7510959,5.82282921 80.0363887,8.42739437 L70.585096,12.0938975 C69.8898071,12.3638394 69.0333539,12.3513586 68.5937175,11.4313452 L74.5304143,8.12535895 L70.8029531,6.51711842 C69.1196411,5.79109231 67.5418703,4.8946141 65.7804719,4.50414329 C64.1146312,4.13471154 63.0570791,4.96914232 62.4206224,6.45614078 L58.0638357,16.636553 C58.0470774,17.811888 57.9508067,19.1469772 57.4077683,20.2139076 L55.8282147,23.3187746 C56.5438273,23.7288581 56.9749064,24.3971159 56.9973696,25.1463207 L57.0718903,27.6467603 C57.5910393,26.4257812 57.8285071,25.481876 58.6204233,24.6531507 C60.5087564,22.6765482 62.5012046,20.8529246 64.8612644,19.3595075 C68.825837,16.850153 73.5274156,15.6231118 78.2853305,15.9490391 C80.908887,16.1287626 83.6169478,18.0636436 84.5468521,20.4360658 C86.1039425,24.4081704 84.2405684,28.2618855 81.4141302,30.9302811 C79.3229154,32.904744 77.3728977,34.1335682 74.6056482,35.0264804 L69.7054665,36.6076198 C65.832886,37.4901908 62.1599782,38.7539612 58.7395138,40.6403453 C59.5292906,42.379456 58.3512217,43.3864785 58.5355624,44.6812726 L64.1239017,46.8529322 Z M89.2691111,187.39069 C86.2608282,184.398863 84.3286384,180.991247 82.9141713,177.058368 C81.9282874,174.317941 79.9590155,171.414549 77.0195483,170.628615 C74.6666196,169.999583 72.0840674,170.354751 69.623458,170.320161 L49.0033309,170.030607 L42.1203281,169.771363 C34.8005414,169.495715 27.7007511,168.412738 20.7628383,166.063851 L15.0275969,163.66718 C11.387136,162.146306 5.84479265,157.127597 5.79166546,153.727469 C5.75137436,151.156424 6.73226644,148.669892 8.39382844,146.712902 L14.0206761,141.293381 L5.78845643,141.533369 C3.7168523,141.59399 1.848843,140.533478 0.772036717,138.837159 C-0.465220829,136.887301 -0.18924465,134.530212 1.41241555,132.921259 C3.02869464,131.297685 4.903122,130.195095 7.02214839,129.305392 L18.9846817,124.284543 L22.5124702,122.062604 C25.6430527,120.090637 28.5875118,117.968901 30.9297437,115.068006 L33.3728816,110.70971 C34.6233318,108.479212 35.9090813,106.381011 36.7081286,103.962231 C36.8564569,102.83147 36.0395817,101.515637 35.7243841,100.413404 C33.1229342,91.3184652 28.6791473,83.2647817 23.076189,75.7146094 C20.7820925,72.6229364 18.9518783,69.5562249 16.2584364,66.7744324 C13.1488909,63.562587 11.7583132,59.0238541 12.276036,54.6398831 C12.4953194,52.7827397 13.6880071,51.7104605 15.2251303,51.1217232 C17.1623119,50.3800069 18.6723366,50.7369579 20.4836531,51.5346595 C22.8216063,52.564504 25.034051,53.5501308 26.7633591,55.5267333 C33.9162766,63.7016588 37.9411075,72.1846819 41.8835734,82.311605 C42.8398629,79.4363847 43.8703166,76.8207651 45.3464683,74.2821699 L50.4655768,65.4785685 C53.3569086,60.5065734 56.8183773,56.1293777 60.8881345,52.0795356 C62.0230598,50.9498447 63.1836573,50.264827 64.6523212,49.3979461 L62.2106095,47.6281683 C61.9770638,47.4591426 61.6739892,46.8482965 61.5762922,46.5583853 L58.3408815,45.9532446 C57.898036,45.8705147 57.2316284,45.4336867 57.0291033,45.081728 C56.3744621,43.9434789 57.5528875,42.5374273 57.1214519,41.4558766 C56.5160158,41.1388643 55.3896479,40.6553223 55.2577213,40.1250665 C54.9332532,38.8217141 55.6709725,37.8721034 56.5473929,36.6764425 L54.3766656,36.3301894 C54.0589721,36.279553 53.4820606,36.028154 53.3208962,35.7756852 C53.1597318,35.523573 53.3422897,34.7693759 53.5597903,34.4969378 C54.1113861,33.8055014 53.9027995,33.3807975 53.6671144,32.4465203 C53.2606379,30.835427 55.0904954,27.9980057 54.9781795,25.353502 L54.0019227,24.9576822 C53.8090246,24.8795881 53.8703527,24.1892214 53.9691193,23.9684895 L55.906301,19.6376511 C55.8260753,19.0863562 55.710907,18.125691 55.9048747,17.5801017 L60.0947922,5.77968129 C60.8745853,3.58377326 62.4680447,1.9266793 64.9233056,1.96519149 C68.0032568,2.01368832 70.7120307,3.36339795 72.96441,5.33179878 L75.6696183,7.69566276 C79.1293042,5.88737279 82.582572,4.85788489 86.4398205,4.50271691 C93.4187375,3.85977729 100.871521,4.54586483 107.144095,7.31767274 C107.649695,6.78706034 108.178115,6.50713377 108.758948,6.16694276 L114.85467,2.59351074 C118.593541,0.402238431 122.666507,-1.58220915 125.418068,1.86356209 C129.080636,6.45043527 127.731776,13.75848 127.682214,19.7781493 C128.192806,20.3526228 127.243647,21.7772172 127.676509,23.9556521 C128.258056,24.5065904 128.373581,24.9241624 128.484827,25.7061738 L129.093829,29.9796005 C129.135546,30.2727211 129.083845,31.0390424 128.824984,31.1638504 C128.514421,31.31362 127.930379,31.2554951 127.326725,31.1570751 C127.632652,32.5281804 128.213486,34.0262333 128.740836,35.4825646 L129.401182,37.3069013 L127.128122,36.857949 L129.401895,39.8052014 C129.543449,39.9888475 129.716736,40.5426385 129.700334,40.7683627 C129.680011,41.0504289 129.098464,41.4483882 128.815713,41.4334112 L127.5075,41.3635187 L128.636008,42.9507202 C128.922681,43.3540284 128.173908,44.5400612 127.673657,44.5286502 L123.593559,44.4370054 C122.625503,45.8131031 121.293045,46.9107005 119.703151,48.0082979 C121.553689,49.166873 123.12932,50.6988023 124.635779,52.3919123 C126.863199,54.8948481 128.93623,57.4034893 130.116081,60.5850242 C131.634664,64.6790839 132.553515,68.806307 133.671325,73.0323067 L135.912294,81.5064149 C137.130298,86.1111178 137.721828,90.6958514 139.21866,95.2224602 C140.039457,97.7047135 141.620081,99.8467757 143.263102,101.834433 C144.214043,102.984806 145.891293,103.584598 147.33999,103.136002 C148.254206,102.852866 149.078212,101.749563 149.358467,100.81386 L151.765593,92.7758663 C154.306071,84.2924866 156.96671,77.9040988 165.470627,74.1209893 C169.194522,72.4642519 173.601584,72.6001143 176.640531,75.5042188 C178.457552,77.2404767 178.461831,80.31432 176.599527,81.8979555 C172.246662,85.5994049 169.168494,90.0996257 167.008106,95.3379967 L162.216675,108.592609 L160.283772,113.989308 C159.339962,116.62454 157.271567,118.321216 154.934683,119.721919 C151.163366,121.981657 146.979866,122.603914 142.702592,121.321244 C140.168175,120.560985 138.005292,119.165988 135.745782,117.772417 C132.147038,115.552974 129.481764,112.687382 127.696476,108.538407 L128.114363,113.178412 L128.603204,123.178388 C128.679508,124.737418 129.376223,126.875558 130.554648,127.906829 C132.718601,129.800701 135.555379,130.805228 138.287686,131.576898 L148.115861,134.352272 L157.547543,137.804105 C160.153985,138.757995 162.289056,140.52385 164.650186,141.976616 C167.735485,143.874767 170.407177,146.272508 172.091916,149.51716 C173.117378,151.491623 173.454325,153.725686 173.880769,155.883082 C174.279045,157.896414 173.854027,159.62554 172.536544,161.147841 C170.408604,163.606916 167.670592,165.023665 164.584936,166.093448 C161.024344,167.328335 157.533994,168.596741 153.644655,168.434847 L140.437377,167.885335 C135.589252,167.683859 130.907285,168.588896 126.160066,169.543142 C122.312088,170.316595 118.955804,171.857796 115.671189,173.944943 C114.868576,174.455229 113.752905,175.155224 113.42808,176.037439 C111.843891,180.339393 108.957551,185.474352 104.840372,187.199199 C102.650034,188.116716 100.317785,187.224873 99.2948194,185.076392 L98.8234492,184.729069 C98.3121445,186.631144 96.9083742,187.818603 95.1705087,188.550335 C93.1245768,189.41151 90.9292469,189.041365 89.2691111,187.39069 L89.2691111,187.39069 Z" id="Fill-41" fill="#E65024" mask="url(#mask-3)"></path>
        </g>
        <path d="M65.7487574,60.2587403 C65.0024807,63.5372688 62.0705012,66.0698019 60.2096231,64.6313003 C59.4226987,64.0225937 59.1994932,62.946392 59.4473013,62.0046263 C59.8569868,60.446309 60.8674733,59.8044391 62.0166609,58.9539616 C62.7854007,58.3851936 63.541661,57.5807167 64.5008031,57.8856049 C65.407531,58.1737331 65.9858687,59.2167716 65.7487574,60.2587403" id="Fill-44" fill="#E65024"></path>
        <path d="M120.925737,57.1488097 C122.91569,59.7715611 123.005186,63.1827427 121.261972,63.8185505 C120.76386,64.000057 119.711656,63.6612923 119.347253,63.2005724 C117.547347,60.9262136 117.735966,57.2639896 119.282716,56.698431 C119.664947,56.558646 120.662597,56.8021999 120.925737,57.1488097" id="Fill-46" fill="#E65024"></path>
        <path d="M127.389035,68.5761253 C127.389035,69.2593601 126.8353,69.8131512 126.152491,69.8131512 C125.469325,69.8131512 124.91559,69.2593601 124.91559,68.5761253 C124.91559,67.8928906 125.469325,67.3390995 126.152491,67.3390995 C126.8353,67.3390995 127.389035,67.8928906 127.389035,68.5761253" id="Fill-48" fill="#E65024"></path>
        <path d="M68.6007608,63.4599592 C68.5911337,63.6756988 67.8619718,63.8094216 67.6861886,63.6810477 C67.4669052,63.5202236 67.1007197,62.875501 67.2023389,62.6230322 C67.2786424,62.4326108 67.9864107,62.2853374 68.1329562,62.4290449 C68.3162272,62.6084119 68.6135969,63.1743271 68.6007608,63.4599592" id="Fill-50" fill="#E65024"></path>
        <path d="M54.4999826,72.0883301 C54.4999826,72.4263816 54.2261457,72.7006026 53.8881284,72.7006026 C53.5501111,72.7006026 53.2762742,72.4263816 53.2762742,72.0883301 C53.2762742,71.7502787 53.5501111,71.4764142 53.8881284,71.4764142 C54.2261457,71.4764142 54.4999826,71.7502787 54.4999826,72.0883301" id="Fill-52" fill="#E65024"></path>
        <path d="M122.807973,56.2486942 C122.807973,56.5646368 122.551964,56.8210281 122.236054,56.8210281 C121.920143,56.8210281 121.663777,56.5646368 121.663777,56.2486942 C121.663777,55.9327516 121.920143,55.6763602 122.236054,55.6763602 C122.551964,55.6763602 122.807973,55.9327516 122.807973,56.2486942" id="Fill-54" fill="#E65024"></path>
        <polygon id="Fill-56" fill="#E65024" points="128.035226 77.3174297 128.80254 77.8198712 128.086214 78.9139027 127.319257 78.4118178"></polygon>
        <path d="M96.0445237,42.0968906 C94.4902858,42.7469622 92.5787764,42.3843057 91.5247898,41.2870649 L88.7899871,38.4403721 C87.24395,36.8310618 87.5242049,33.5521767 89.7501988,32.446021 C92.9717037,30.845269 99.8750303,31.2660503 100.959324,33.9183991 C101.397178,34.9896086 101.245641,36.3453803 100.572815,37.2179667 L99.0520936,39.192073 C98.2441323,40.2404604 97.4547121,41.5070836 96.0445237,42.0968906" id="Fill-58" fill="#E65024"></path>
        <path d="M99.3233988,52.7475438 L91.2719543,52.6830003 L87.4118534,52.4897261 C87.0777582,52.4729662 86.4402318,51.8457167 86.4865844,51.5180065 C86.7233391,49.8512845 91.6620291,50.2813373 94.7648001,50.2542361 L99.2716979,50.214996 C99.697072,50.2114448 100.393431,50.8543844 100.489701,51.2487778 C100.616636,51.767266 100.058622,52.7536059 99.3233988,52.7475438" id="Fill-60" fill="#E65024"></path>
    </g>
</svg>