<?xml version="1.0" encoding="UTF-8"?>
<svg width="123px" height="69px" viewBox="0 0 123 69" version="1.1" xmlns="http://www.w3.org/2000/svg" xmlns:xlink="http://www.w3.org/1999/xlink">
    <title>Frame 1</title>
    <defs>
        <path d="M74.7367024,67.9621 L31.4459963,67.9621 L31.4459962,0.408052063 L53.755,0.408 L53.7553201,0.395629476 L74.7367024,0.395629476 Z M30.4841304,67.9388707 L0.000202507189,67.9388707 L0.000202507189,0.0001 L30.4841304,0.0001 Z M96.5317,67.9386795 L76.165194,67.9386795 L76.165194,0.0001 L96.5317,0.0001 Z M122.318,67.9381319 L98.9665914,67.9381319 L98.9665914,0.0001 L122.318,0.0001 Z" id="path-1"></path>
        <polygon id="path-2" points="2.78911009e-16 0 30.4839279 0 30.4839279 67.9387707 2.78911009e-16 67.9387707"></polygon>
        <polygon id="path-4" points="-3.55271368e-15 0 23.5655802 0 23.5655802 67.5540479 -3.55271368e-15 67.5540479"></polygon>
        <polygon id="path-6" points="0 0 20.366506 0 20.366506 67.9385795 0 67.9385795"></polygon>
        <polygon id="path-8" points="0 0 23.3514086 0 23.3514086 67.9380319 0 67.9380319"></polygon>
        <polygon id="path-10" points="0 0 20.9813823 0 20.9813823 67.5664705 0 67.5664705"></polygon>
    </defs>
    <g id="Frame-1" stroke="none" fill="none" transform="translate(0.658, 0.2261)" xlink:href="#path-1" fill-rule="evenodd" stroke-width="1">
        <g id="Group-3" transform="translate(0.0002, 0.0001)">
            <mask id="mask-3" fill="white">
                <use xlink:href="#path-2"></use>
            </mask>
            <g id="Clip-2"></g>
            <path d="M21.9139975,26.4971 L21.8709975,20.4051 C21.8619975,19.1971 21.8499975,18.0641 21.6899975,16.8071 L20.4319975,20.3781 C19.8399975,22.0611 19.5729975,23.8011 19.2739975,25.5631 L18.6589975,29.1921 C18.5499975,29.8321 18.1079975,30.2301 17.4979975,30.2901 L16.3919975,30.3981 L13.7809975,30.4981 C13.2279975,30.5201 12.7129975,30.4911 12.4529975,29.9391 L11.1559975,27.1811 L9.29399749,23.3281 C8.76699749,22.2371 8.19999749,21.2561 7.30499749,20.3451 L7.24699749,27.7951 L7.09999749,35.2891 L6.78099749,43.4101 L6.52699749,49.0311 C6.43899749,50.9771 6.35699749,52.8201 6.09299749,54.7571 C5.72599749,57.4551 5.64199749,60.0541 5.68699749,62.7671 L5.75899749,67.1411 C5.76599749,67.5271 5.45999749,67.9581 5.04099749,67.9387707 L1.34599749,67.7591 L0.634997493,67.0381 L0.169997493,53.1371 C-0.00100250719,48.0191 -0.0620025072,43.0251 0.0759974928,37.9021 L0.146997493,28.8381 C0.160997493,27.0651 0.342997493,25.3981 0.430997493,23.6321 L0.692997493,18.4341 L0.974997493,12.4841 C1.11299749,9.5761 1.23799749,6.7621 1.16999749,3.8571 C1.14499749,2.7961 1.15299749,1.8211 1.20599749,0.7831 C1.33199749,0.3941 1.58099749,0.0831 2.00499749,0.0481 C3.48899749,-0.0729 4.90499749,0.0421 6.40299749,0.2971 C8.86999749,4.1131 10.2169975,8.2891 11.3159975,12.6781 C12.1159975,15.8741 12.9569975,18.9161 14.0419975,22.1111 L15.2399975,17.1721 C15.7239975,15.1761 16.3329975,13.3061 17.0349975,11.3801 C17.5639975,9.9261 17.9649975,8.5111 18.2669975,6.9951 C18.5349975,5.6421 18.9349975,4.3841 19.3519975,3.0791 L19.7859975,1.7251 C19.9449975,1.2271 20.4319975,0.7941 20.9979975,0.8481 L24.9249975,1.2231 L27.4039975,1.4621 C28.0489975,1.5241 28.5619975,2.0221 28.6209975,2.7021 C28.8639975,5.4841 28.9299975,8.2241 28.6589975,11.0321 C28.3569975,14.1591 28.3369975,17.1581 28.3949975,20.2961 L28.5099975,26.5501 C28.6949975,29.1491 28.8239975,31.6411 28.8349975,34.2471 L29.1329975,39.9901 L29.6919975,55.0791 L29.8239975,61.4261 L30.3609975,66.5281 C30.3729975,66.6451 30.5389975,66.9181 30.4649975,66.9861 L30.0759975,67.3461 C28.8159975,67.3221 27.6749975,67.1871 26.5259975,66.7591 L24.1189975,66.6811 C23.6939975,66.6671 23.3529975,66.1951 23.3089975,65.7781 L22.6299975,57.0491 L22.3479975,49.6201 L22.1919975,45.3851 C22.1079975,43.1271 22.1109975,40.9631 21.9429975,38.7171 L21.9319975,35.1971 L21.9139975,26.4971 Z" id="Fill-1" fill="#E65024" mask="url(#mask-3)"></path>
        </g>
        <g id="Group-6" transform="translate(31.446, 0.4081)">
            <mask id="mask-5" fill="white">
                <use xlink:href="#path-4"></use>
            </mask>
            <g id="Clip-5"></g>
            <path d="M12.5775038,34.7792479 L12.1135038,28.3242479 L11.8105038,25.1652479 L11.5575038,22.5352479 L10.0115038,22.4392479 L9.96150377,23.7422479 L9.80350377,29.3642479 L9.43850377,32.2702479 L9.24750377,34.7842479 L12.5775038,34.7792479 Z M13.4115038,43.9752479 C13.2225038,43.0702479 12.6565038,42.9762479 11.9515038,42.8482479 L8.11050377,42.1532479 L7.90250377,46.1212479 L7.49550377,51.0542479 L6.18450377,66.2862479 C6.15450377,66.6202479 5.89450377,67.0872479 5.59650377,67.1752479 C4.69650377,67.4422479 3.81450377,67.4832479 2.88750377,67.4942479 L0.780503772,67.5192479 C0.580503772,67.5212479 0.214503772,67.3422479 0.108503772,67.1912479 C0.000503772164,67.0372479 -0.0314962278,66.6582479 0.0335037722,66.4462479 C0.315503772,65.5212479 0.488503772,64.6832479 0.561503772,63.7332479 L0.860503772,59.8502479 L1.32750377,53.3112479 L2.28150377,41.7722479 C2.74650377,36.1522479 3.20250377,30.6552479 3.41050377,25.0192479 L4.06650377,15.0042479 C4.25750377,12.0942479 4.51650377,9.32524794 4.89050377,6.45224794 C5.10750377,4.68924794 5.13250377,3.01224794 4.86650377,1.25324794 C4.87250377,1.14224794 4.93750377,0.822247937 5.03950377,0.811247937 L5.45350377,0.765247937 L6.91850377,0.605247937 C8.22350377,0.463247937 8.57650377,-0.421752063 12.2945038,0.247247937 L14.2875038,0.606247937 C15.2585038,0.780247937 15.6665038,1.40924794 15.8025038,2.29924794 L16.6795038,8.03324794 L17.3705038,14.3312479 L18.2195038,21.2832479 C18.4255038,22.9712479 18.4665038,24.6052479 18.7625038,26.2792479 C19.0045038,27.6472479 19.1305038,28.9562479 19.1725038,30.3402479 C19.2265038,32.0812479 19.4365038,33.7502479 19.7785038,35.4562479 L20.2745038,39.0502479 L21.0785038,45.7072479 L21.7925038,51.6642479 L22.2825038,55.5542479 L23.3435038,63.6852479 L23.5605038,65.9612479 C23.6175038,66.5572479 23.1855038,66.7492479 22.7165038,66.8672479 C21.5105038,67.1722479 20.3085038,67.4842479 19.0725038,67.5522479 C18.3865038,67.5892479 17.9845038,67.1302479 17.8755038,66.5152479 L16.8385038,59.7202479 C15.9015038,54.4142479 14.9015038,49.1812479 13.4115038,43.9752479 L13.4115038,43.9752479 Z" id="Fill-4" fill="#E65024" mask="url(#mask-5)"></path>
        </g>
        <g id="Group-9" transform="translate(76.1652, 0.0001)">
            <mask id="mask-7" fill="white">
                <use xlink:href="#path-6"></use>
            </mask>
            <g id="Clip-8"></g>
            <path d="M16.558506,0.2984 L19.390506,0.5644 C19.903506,0.6124 20.243506,0.8544 20.231506,1.4094 L20.125506,6.2024 L20.194506,23.3884 L20.366506,35.1444 L20.196506,39.5254 L20.270506,45.2494 L20.023506,50.7634 L19.861506,56.2924 L19.107506,63.5114 C18.987506,64.6624 18.341506,65.6474 17.352506,66.2624 C15.738506,67.2674 13.882506,67.8664 11.969506,67.8934 L8.74750599,67.9385795 C7.99950599,67.9484 7.39550599,67.5384 6.74150599,67.2384 L4.73650599,66.3204 C3.36550599,65.4604 2.51350599,64.0054 2.16250599,62.4324 C1.60250599,59.9244 1.32750599,57.4764 1.16950599,54.9084 L0.639505988,46.2824 L0.274505988,37.3344 C0.0895059884,32.8184 0.137505988,28.4354 0.232505988,23.9214 L0.112505988,17.1364 C0.168505988,13.1454 0.176505988,4.9794 0.000505988428,0.9954 C-0.00549401157,0.8554 0.0425059884,0.5814 0.110505988,0.4964 C0.311505988,0.2464 1.68850599,0.0854 2.64050599,0.1984 C4.04850599,0.3664 5.41250599,0.3114 6.77850599,0.0194 C7.37750599,-0.1086 7.63450599,0.4174 7.66450599,0.8804 C7.83750599,3.5134 7.51250599,10.2914 7.36750599,12.9034 L7.02750599,19.0184 L6.65750599,26.6884 C6.48550599,30.2564 6.54850599,33.7494 6.58350599,37.3314 L6.44750599,43.6914 C6.41350599,45.2814 6.47450599,46.7894 6.68350599,48.3684 L7.37450599,53.5864 L7.67050599,55.6934 C7.77550599,56.4364 8.30550599,57.0444 9.01850599,57.2584 L11.352506,57.9584 C12.139506,58.1944 12.955506,56.9234 13.454506,56.0304 C13.995506,54.0574 14.131506,52.0874 14.220506,50.0394 L14.503506,43.4804 L14.471506,40.0424 L14.366506,34.5224 L14.054506,31.1964 L13.973506,25.6714 L14.000506,21.9344 L13.952506,16.7204 L13.658506,2.7674 C13.640506,2.2294 13.634506,1.5934 13.962506,1.1964 C14.583506,0.4454 15.577506,0.2064 16.558506,0.2984" id="Fill-7" fill="#E65024" mask="url(#mask-7)"></path>
        </g>
        <g id="Group-12" transform="translate(98.9666, 0.0001)">
            <mask id="mask-9" fill="white">
                <use xlink:href="#path-8"></use>
            </mask>
            <g id="Clip-11"></g>
            <path d="M22.7081086,62.3757 L20.2911086,62.2587 C18.6871086,62.3067 17.0861086,62.3357 15.5271086,61.9177 C14.8771086,61.5937 14.4761086,60.7937 14.1711086,60.1427 C13.1121086,57.8737 12.3671086,55.5767 11.5321086,53.2107 L9.00710857,46.0537 L6.68410857,39.9457 L6.77010857,41.5387 L7.00510857,45.1807 L7.22110857,51.6287 L7.27610857,54.3447 L7.48010857,63.0647 C7.46710857,64.4827 7.55110857,65.8187 7.20810857,67.2067 C6.92210857,67.4717 6.45810857,67.5107 6.07010857,67.5627 C4.67910857,67.7477 3.32610857,67.9567 1.95210857,67.9367 C1.30310857,67.9277 1.01010857,67.4807 0.995108565,66.8897 L0.893108565,62.6457 L0.772108565,52.5727 L0.990108565,47.2607 L0.931108565,41.4267 L0.470108565,30.2957 L0.311108565,23.6217 L0.287108565,11.6667 L0.0101085653,7.3917 L0,1.6507 C-0.00589143474,1.1727 0.237108565,0.9547 0.654108565,0.8747 L3.45410857,0.3407 L4.99610857,0.0077 C5.15610857,-0.0273 5.52010857,0.0617 5.63810857,0.1737 C5.78310857,0.3127 5.86810857,0.6537 5.85910857,0.8877 L5.73910857,3.7367 L5.71610857,13.9437 C5.72310857,15.8237 5.73110857,17.6007 5.96610857,19.4497 L6.26610857,21.8047 L6.79410857,19.6217 L7.93710857,13.8847 L9.26910857,9.1777 C9.63710857,7.8767 9.87310857,6.5957 10.0331086,5.2647 C10.1061086,4.6527 10.4451086,4.2537 10.9881086,3.9977 C11.5481086,3.7347 12.1291086,3.4857 12.7551086,3.3797 L18.2521086,2.4467 C18.4761086,2.4087 18.7791086,2.3387 18.9461086,2.4007 C19.0991086,2.4567 19.2631086,2.8447 19.1991086,3.0037 L18.7611086,4.0877 C18.2261086,5.4137 17.7091086,6.6577 17.3191086,8.0447 L14.9201086,16.5577 L13.2121086,22.5707 L12.2491086,27.0277 L10.8701086,32.5187 C10.7251086,33.0967 10.6461086,33.6477 10.8691086,34.2117 L14.0781086,42.3417 L15.6181086,45.3857 L17.0331086,48.5497 C17.5981086,50.1507 18.2831086,51.6187 19.1951086,53.0517 C19.9171086,54.1867 20.4141086,55.3637 20.9901086,56.5787 L23.2991086,61.4517 C23.3731086,61.6077 23.3681086,62.0027 23.2901086,62.1437 C23.2131086,62.2837 22.9021086,62.3847 22.7081086,62.3757" id="Fill-10" fill="#E65024" mask="url(#mask-9)"></path>
        </g>
        <g id="Group-15" transform="translate(53.7553, 0.3956)">
            <mask id="mask-11" fill="white">
                <use xlink:href="#path-10"></use>
            </mask>
            <g id="Clip-14"></g>
            <path d="M13.3427799,67.1233705 C12.7107799,67.3003705 12.0587799,67.5873705 11.4657799,67.5653705 L8.72777987,67.4633705 C6.00777987,67.3623705 4.73077987,65.1123705 3.66577987,62.7943705 C3.17377987,61.7233705 2.87577987,60.6553705 2.73577987,59.4643705 L2.21377987,55.0023705 C2.04677987,53.5833705 1.96777987,52.1963705 2.03277987,50.8013705 C2.06077987,50.2003705 2.40377987,49.7783705 2.97577987,49.7283705 C4.35177987,49.6083705 5.64077987,49.3683705 6.98477987,49.0263705 C8.33477987,48.6833705 7.47877987,51.1773705 7.92977987,52.8403705 L8.86077987,56.2753705 C9.18677987,57.4753705 10.3197799,58.8533705 11.6587799,58.4913705 C14.0347799,57.8503705 15.6337799,56.6283705 15.8007799,54.0503705 C15.9647799,51.5133705 15.1797799,45.2143705 14.3647799,42.8253705 C14.0097799,41.7863705 13.6927799,40.7503705 13.0287799,39.8883705 L11.4457799,37.8303705 C10.2507799,36.2773705 8.50077987,36.2413705 6.95077987,35.1423705 C5.22577987,33.9183705 2.56577987,31.2873705 1.81677987,29.3443705 L0.626779873,26.2573705 C0.0587798731,24.7843705 -0.0172201269,23.2573705 0.00277987309,21.6703705 C0.0327798731,19.3493705 -0.0182201269,17.1203705 0.243779873,14.8083705 C0.545779873,12.1523705 1.18777987,9.62837052 1.95277987,7.08437052 C2.48977987,5.29737052 3.39677987,3.81637052 4.59077987,2.40537052 C5.63077987,1.17637052 7.01977987,0.244370524 8.66377987,0.033370524 C9.74177987,-0.104629476 10.7767799,0.210370524 11.7957799,0.520370524 C13.1187799,0.923370524 14.3547799,1.52637052 15.2317799,2.60637052 C15.9927799,3.54437052 16.3847799,4.63337052 16.9427799,5.70137052 C18.4607799,8.61337052 19.0967799,11.7703705 18.6867799,15.0433705 C18.9577799,15.4833705 18.9887799,16.2713705 18.4477799,16.4703705 C17.7887799,16.7133705 16.9797799,16.8163705 16.2647799,16.8173705 L12.7157799,16.8233705 C12.1147799,16.8243705 11.7497799,16.4093705 11.6587799,15.8363705 L11.3187799,13.6993705 C11.0467799,11.9943705 10.0447799,10.4873705 8.57277987,9.53637052 C8.17077987,9.86137052 7.70977987,10.2113705 7.51777987,10.6253705 C6.16977987,13.5363705 6.15077987,15.6203705 6.18977987,18.7563705 C6.20777987,20.2423705 6.32777987,21.6573705 6.60277987,23.1003705 C6.90577987,24.6853705 7.77977987,25.9253705 8.98277987,26.9743705 L9.87077987,27.7483705 C10.7877799,28.5493705 11.6407799,29.4153705 12.7327799,29.9673705 C13.6597799,30.4363705 14.3927799,31.0413705 15.0557799,31.8283705 L16.1057799,33.0753705 C16.7257799,33.8113705 17.2687799,34.5843705 17.6527799,35.4793705 L18.8727799,38.3243705 C19.6067799,40.4113705 20.1347799,42.5843705 20.2797799,44.7983705 L20.9237799,53.5433705 C21.0347799,55.2333705 20.9847799,56.8973705 20.7787799,58.5723705 C20.6197799,59.8743705 20.0817799,61.1183705 19.4787799,62.2583705 L18.2947799,63.6853705 L17.1157799,65.2153705 C16.0667799,66.1893705 14.7557799,66.7283705 13.3427799,67.1233705" id="Fill-13" fill="#E65024" mask="url(#mask-11)"></path>
        </g>
    </g>
</svg>