<?xml version="1.0" encoding="UTF-8"?>
<svg width="126px" height="69px" viewBox="0 0 126 69" version="1.1" xmlns="http://www.w3.org/2000/svg" xmlns:xlink="http://www.w3.org/1999/xlink">
    <title>Frame 1</title>
    <defs>
        <path d="M116.2261,1.6969 C118.1111,3.2069 119.3471,4.1489 119.7591,6.7109 L120.2261,9.6139 L120.5571,15.8399 L120.8861,22.5049 L120.8521,26.7819 L120.6661,35.8259 L120.4421,40.8289 C120.3741,42.3539 119.8131,43.7609 119.3751,45.2089 C119.1211,45.7569 118.6671,46.1199 118.0701,46.2349 L115.3311,46.7659 L116.9201,49.6819 L118.3461,52.3959 L120.3851,57.4889 C121.0091,59.0469 123.6451,65.5599 124.5871,66.9599 C124.6801,67.0979 124.7211,67.4909 124.6721,67.6449 C124.4061,68.4819 122.3251,68.2929 120.9831,68.0529 C119.7091,67.8249 118.4511,67.8749 117.2061,67.8679 C116.6691,67.8649 116.2651,67.7109 116.0861,67.1709 L112.5851,57.1489 L109.9891,51.5619 L110.0011,57.6499 L109.8621,66.8659 C109.7961,67.3389 109.4851,67.6359 109.0141,67.6139 L104.6171,67.4029 C103.8821,67.3669 103.4891,66.8129 103.4591,66.0699 L103.2191,53.1749 C103.1311,51.0409 103.0691,49.0309 102.7441,46.9219 C102.5041,45.3639 102.4051,43.8749 102.4241,42.2929 L102.6051,27.2539 L102.5341,17.6719 L102.5741,10.5909 L102.5211,2.8869 C102.5181,2.4619 102.5251,1.9009 102.6611,1.5759 L103.3511,1.0659 C103.9101,0.8239 104.6361,0.9049 105.2731,0.8379 L109.2591,0.4169 L112.4541,0.390652941 C113.9151,0.3789 115.1111,0.8039 116.2261,1.6969 Z M16.462,61.538 L16.5634,59.2763 L16.8314,56.0513 L16.9654,52.1583 L17.3084,43.5363 L17.9974,34.4753 C18.3914,29.2963 18.7604,24.2403 19.5004,19.0993 C19.8864,16.4203 20.2764,13.8823 20.5194,11.1983 L21.1494,4.2323 L21.4904,0.6083 C22.3864,0.9513 23.1264,1.0203 23.9704,0.8523 L25.8434,0.4803 C26.5364,0.3423 27.2594,0.4623 27.9744,0.5013 C28.7374,0.5443 29.5664,0.8643 29.9064,1.6143 C30.0504,1.9343 29.9864,2.5083 30.0174,2.8773 L30.3274,6.5553 L30.7644,10.9223 C30.8984,12.2603 31.0044,13.5393 31.1724,14.8683 L31.6594,18.7343 L32.4454,25.6363 L32.9674,31.9203 L33.5794,38.6143 L34.9174,49.0173 L36.3084,57.9223 L37.5074,65.4773 C37.5684,65.8403 37.4364,66.2893 37.1574,66.4683 C36.6364,66.8043 36.0994,66.7423 35.5224,66.8083 L32.4194,67.1613 C31.9824,67.2113 31.6594,66.9843 31.6074,66.5493 L31.3224,64.1673 L31.0404,59.8203 L30.2334,53.7223 L29.1754,46.9403 L28.8894,42.2243 L28.1834,35.3653 C27.7344,35.0943 27.2704,34.8763 26.7814,34.8543 C25.3824,34.7923 23.9974,34.9703 22.6624,35.2823 L22.4794,39.3373 L22.4214,45.1603 L22.1274,49.6373 C21.9804,51.8853 21.9844,54.0423 21.7214,56.2893 C21.4334,58.7483 21.4524,62.2923 21.3954,64.7553 C21.3634,66.1543 21.0394,67.9343 19.9184,67.5573 C19.3484,67.3663 18.7604,67.2123 18.1534,67.1933 L16.4744,67.1403 L16.462,67.138 L16.462283,67.9383099 L0,67.9383099 L0,0.0003 L16.462283,0.0003 Z M52.1645,1.4638 L52.1555,2.8968 L52.4705,7.0868 L52.8875,10.2078 C52.9095,10.3708 52.8385,10.7298 52.7265,10.8318 C52.6145,10.9338 52.3175,11.0248 52.1355,11.0178 C51.0365,10.9728 50.0615,11.0508 48.9835,11.1578 C47.7315,11.2828 46.4885,11.3878 45.2965,11.8158 L45.3005,15.7278 L47.7855,15.8028 C48.9725,15.8388 50.1305,15.8468 51.2795,16.0158 C51.8495,16.0998 52.1325,16.5268 52.1165,17.0638 C52.0755,18.4138 52.2315,19.6778 52.5485,20.9888 C52.6475,21.3998 52.6395,21.9388 52.3745,22.2648 C51.2975,22.4838 50.2435,22.6718 49.1485,22.6318 L44.9185,22.4758 C45.1685,23.5398 44.9865,24.3188 44.9405,25.2478 L44.8085,27.8848 L44.6395,31.6328 L44.4045,35.2708 C44.3005,36.8768 44.2995,38.4158 44.3785,40.0128 L44.5975,44.3918 L44.6135,59.6218 C44.5935,61.9758 44.6645,64.1688 44.8685,66.5028 C44.9015,66.8868 44.7305,67.6078 44.2665,67.6088 L40.5475,67.6148032 C40.1185,67.6158 39.8415,67.3848 39.8255,66.9468 L39.7625,65.1638 L39.5215,60.4018 L39.2605,52.9628 L38.9925,46.6438 C38.8775,43.9298 38.6995,41.3468 38.7225,38.6208 L38.8385,24.7898 L38.6715,16.4488 L38.7065,13.0168 L38.7815,7.8058 L38.6675,1.3458 L38.9395,0.8648 C40.2135,0.9888 41.4095,0.8318 42.6835,0.8108 L45.9135,0.7558 L48.7235,0.7888 C49.5965,0.7998 50.4025,0.9098 51.2535,0.7248 C51.7325,0.6198 52.1675,0.9628 52.1645,1.4638 Z M93.7184,0.607 C94.5564,0.648 95.1084,1.17 95.1274,1.987 L95.1714,3.912 L96.2044,9.539 L96.8404,15.5 C97.0034,17.022 96.9154,18.483 97.0864,19.994 L97.5164,23.797 C97.6344,24.84 97.7684,25.844 98.0514,26.854 C98.3224,27.821 98.4784,28.777 98.4934,29.795 C98.5184,31.444 98.5704,33.035 98.7844,34.67 L99.4164,39.486 L100.1214,45.366 L100.5094,49.822 L101.2644,55.35 L101.7584,61.905 L102.7044,65.711 C102.7904,66.059 102.7674,66.556 102.5634,66.818 C102.3974,67.03 101.9304,67.35 101.6004,67.326 C100.0544,67.21 98.6604,67.262 97.1364,67.588 C96.9314,67.632 96.5204,67.627 96.3584,67.532 C96.1824,67.429 95.9444,67.098 95.9004,66.854 L95.3254,63.629 L95.0414,58.092 L94.6374,55.011 C94.5314,52.453 94.2444,50.013 93.6884,47.502 C92.9044,43.963 92.3874,40.49 91.9204,36.895 L91.1644,31.06 L90.8374,27.867 C90.1904,27.474 89.3644,27.21 88.5504,27.25 L86.0084,27.374 L85.5554,29.746 L85.2944,32.668 L84.4564,37.613 L83.9614,42.494 L83.7234,46.136 L83.5054,48.902 L83.1744,52.792 L82.8544,56.439 C82.6704,58.533 82.3974,63.552 82.3994,65.647 C82.4004,66.343 82.1034,66.746 81.5084,67.025 C81.0104,67.258 80.5084,67.415 79.9364,67.387 L76.2994,67.21 C76.1354,67.202 75.8534,67.06 75.7664,66.941 C75.6794,66.821 75.6654,66.465 75.6964,66.31 L76.0274,64.628 L76.6534,57.382 L77.2584,52.287 L78.2654,43.005 L79.8184,27.786 L80.7874,21.195 L81.5624,15.655 C81.8164,12.956 82.2254,10.376 82.7854,7.72 C83.2004,5.75 83.4974,3.871 83.6534,1.872 C83.6684,1.685 83.8224,1.39 83.9494,1.334 C84.2464,1.236 84.4874,1.105 84.7484,0.973 C85.3784,0.656 86.2084,0.732 86.9194,0.708 C89.2024,0.632 91.4404,0.496 93.7184,0.607 Z M77.0587,0.7434 C77.9667,0.7504 79.0707,1.0694 79.0367,1.8124 C78.9747,3.1364 79.0347,4.3664 79.1817,5.6774 C79.2587,6.3604 79.2757,7.0544 79.2197,7.7134 C79.1747,8.2544 78.7477,8.4704 78.2517,8.4324 L76.4247,8.2954 L73.1957,8.1754 L70.1087,8.1964 L69.9387,11.5844 L69.6957,16.5784 C69.6537,18.2664 69.6677,19.8904 69.4727,21.5724 C69.2597,23.4034 69.1797,25.1394 69.2827,26.9804 L69.2277,30.7334 L69.0297,35.5254 L68.9547,41.1374 L68.3167,51.3804 C68.1947,55.5814 68.1307,59.6624 68.4437,63.8454 C68.5047,64.6504 68.5187,65.4444 68.2977,66.1984 C68.1747,66.6194 67.6067,66.7784 67.2447,66.9234 C66.0107,67.4164 64.7027,67.8304 63.3947,67.4764 C62.9267,67.3494 62.9337,66.6734 62.8877,66.2574 L62.5577,63.2654 L62.4057,60.0294 L62.4247,47.4954 C62.2027,42.0724 62.2957,36.7834 62.7187,31.3794 L62.9227,24.6014 L63.2367,18.2544 C63.3717,15.5154 63.2467,12.8714 63.5487,10.1464 L63.6167,8.6254 C62.0877,8.6744 60.7227,8.4834 59.2407,8.3664 C58.0277,8.2704 56.8237,8.3724 55.6047,8.4204 C55.1877,8.4364 54.6937,8.3654 54.6507,7.8134 C54.5587,6.6144 54.5867,5.3964 54.6547,4.1844 L54.7867,1.8424 C54.8077,1.4684 55.1287,1.1874 55.4637,1.1334 C55.9457,1.0554 56.2637,1.1714 56.7177,1.3064 C57.5107,1.5414 58.4037,1.2764 59.2367,1.3574 L60.7867,1.5084 L63.8197,1.4924 C64.4317,1.4894 65.0497,1.4854 65.6457,1.3564 C66.5397,1.1634 67.3977,1.1284 68.3097,1.0674 L70.4607,0.9224 L72.5827,0.7084 Z M108.3721,9.6239 L108.0411,10.2529 L108.0611,17.3329 C107.8941,20.4249 107.9311,23.3989 108.0571,26.4869 L108.0391,30.8629 L107.9481,36.0669 L107.8631,39.8859 C107.9621,40.9279 108.7581,41.6069 109.8041,41.4189 C111.3301,41.8549 114.3231,40.9479 114.7521,40.0729 C115.5671,38.4109 115.7991,36.6629 115.9491,34.8249 C116.1331,32.5589 116.1211,30.4119 115.9721,28.1549 L115.5471,21.7049 L115.1111,15.8269 L114.7861,12.7399 C114.5211,11.6319 114.0951,10.5089 113.1671,9.8049 C112.7581,9.4949 112.1431,9.3969 111.6551,9.2199 C110.2231,8.6999 108.5621,8.2859 108.3721,9.6239 Z M24.6134,19.7363 C24.3674,19.9243 24.1584,20.2293 24.1414,20.5683 C24.0774,21.8613 24.1014,23.1083 23.9644,24.3853 C23.8084,25.8303 23.2754,28.5663 23.8664,29.0063 C24.0004,29.1053 24.3914,29.1783 24.5554,29.1413 L26.6024,28.6773 C26.9954,28.5883 27.3624,28.2063 27.3024,27.7193 L26.9074,24.5243 C26.8054,23.6973 26.6124,22.9513 26.6324,22.1073 C26.6484,21.4533 26.5764,20.8433 26.3824,20.2193 C26.1924,19.6073 25.1234,19.3443 24.6134,19.7363 Z M87.7454,17.866 C87.5214,18.875 87.3884,19.833 87.3834,20.864 L90.0824,20.789 C90.4174,20.78 90.6274,20.623 90.7514,20.251 C90.7554,19.51 90.7084,18.876 90.5624,18.202 C90.2944,16.966 90.1604,15.746 90.0904,14.479 L89.9764,12.42 L88.4014,12.325 C88.4414,14.264 88.1534,16.03 87.7454,17.866 Z" id="path-1"></path>
        <polygon id="path-2" points="0 0 16.462283 0 16.462283 67.9380099 0 67.9380099"></polygon>
    </defs>
    <g id="Frame-1" stroke="none" fill="none" transform="translate(0.658, 0.2261)" xlink:href="#path-1" fill-rule="evenodd">
        <path d="M90.7514,20.251 C90.7554,19.51 90.7084,18.876 90.5624,18.202 C90.2944,16.966 90.1604,15.746 90.0904,14.479 L89.9764,12.42 L88.4014,12.325 C88.4414,14.264 88.1534,16.03 87.7454,17.866 C87.5214,18.875 87.3884,19.833 87.3834,20.864 L90.0824,20.789 C90.4174,20.78 90.6274,20.623 90.7514,20.251 M88.5504,27.25 L86.0084,27.374 L85.5554,29.746 L85.2944,32.668 L84.4564,37.613 L83.9614,42.494 L83.7234,46.136 L83.5054,48.902 L83.1744,52.792 L82.8544,56.439 C82.6704,58.533 82.3974,63.552 82.3994,65.647 C82.4004,66.343 82.1034,66.746 81.5084,67.025 C81.0104,67.258 80.5084,67.415 79.9364,67.387 L76.2994,67.21 C76.1354,67.202 75.8534,67.06 75.7664,66.941 C75.6794,66.821 75.6654,66.465 75.6964,66.31 L76.0274,64.628 L76.6534,57.382 L77.2584,52.287 L78.2654,43.005 L79.8184,27.786 L80.7874,21.195 L81.5624,15.655 C81.8164,12.956 82.2254,10.376 82.7854,7.72 C83.2004,5.75 83.4974,3.871 83.6534,1.872 C83.6684,1.685 83.8224,1.39 83.9494,1.334 C84.2464,1.236 84.4874,1.105 84.7484,0.973 C85.3784,0.656 86.2084,0.732 86.9194,0.708 C89.2024,0.632 91.4404,0.496 93.7184,0.607 C94.5564,0.648 95.1084,1.17 95.1274,1.987 L95.1714,3.912 L96.2044,9.539 L96.8404,15.5 C97.0034,17.022 96.9154,18.483 97.0864,19.994 L97.5164,23.797 C97.6344,24.84 97.7684,25.844 98.0514,26.854 C98.3224,27.821 98.4784,28.777 98.4934,29.795 C98.5184,31.444 98.5704,33.035 98.7844,34.67 L99.4164,39.486 L100.1214,45.366 L100.5094,49.822 L101.2644,55.35 L101.7584,61.905 L102.7044,65.711 C102.7904,66.059 102.7674,66.556 102.5634,66.818 C102.3974,67.03 101.9304,67.35 101.6004,67.326 C100.0544,67.21 98.6604,67.262 97.1364,67.588 C96.9314,67.632 96.5204,67.627 96.3584,67.532 C96.1824,67.429 95.9444,67.098 95.9004,66.854 L95.3254,63.629 L95.0414,58.092 L94.6374,55.011 C94.5314,52.453 94.2444,50.013 93.6884,47.502 C92.9044,43.963 92.3874,40.49 91.9204,36.895 L91.1644,31.06 L90.8374,27.867 C90.1904,27.474 89.3644,27.21 88.5504,27.25" id="Fill-1" fill="#E65024"></path>
        <path d="M114.7521,40.0729 C115.5671,38.4109 115.7991,36.6629 115.9491,34.8249 C116.1331,32.5589 116.1211,30.4119 115.9721,28.1549 L115.5471,21.7049 L115.1111,15.8269 L114.7861,12.7399 C114.5211,11.6319 114.0951,10.5089 113.1671,9.8049 C112.7581,9.4949 112.1431,9.3969 111.6551,9.2199 C110.2231,8.6999 108.5621,8.2859 108.3721,9.6239 L108.0411,10.2529 L108.0611,17.3329 C107.8941,20.4249 107.9311,23.3989 108.0571,26.4869 L108.0391,30.8629 L107.9481,36.0669 L107.8631,39.8859 C107.9621,40.9279 108.7581,41.6069 109.8041,41.4189 C111.3301,41.8549 114.3231,40.9479 114.7521,40.0729 M120.9831,68.0529 C119.7091,67.8249 118.4511,67.8749 117.2061,67.8679 C116.6691,67.8649 116.2651,67.7109 116.0861,67.1709 L112.5851,57.1489 L109.9891,51.5619 L110.0011,57.6499 L109.8621,66.8659 C109.7961,67.3389 109.4851,67.6359 109.0141,67.6139 L104.6171,67.4029 C103.8821,67.3669 103.4891,66.8129 103.4591,66.0699 L103.2191,53.1749 C103.1311,51.0409 103.0691,49.0309 102.7441,46.9219 C102.5041,45.3639 102.4051,43.8749 102.4241,42.2929 L102.6051,27.2539 L102.5341,17.6719 L102.5741,10.5909 L102.5211,2.8869 C102.5181,2.4619 102.5251,1.9009 102.6611,1.5759 L103.3511,1.0659 C103.9101,0.8239 104.6361,0.9049 105.2731,0.8379 L109.2591,0.4169 L112.4541,0.390652941 C113.9151,0.3789 115.1111,0.8039 116.2261,1.6969 C118.1111,3.2069 119.3471,4.1489 119.7591,6.7109 L120.2261,9.6139 L120.5571,15.8399 L120.8861,22.5049 L120.8521,26.7819 L120.6661,35.8259 L120.4421,40.8289 C120.3741,42.3539 119.8131,43.7609 119.3751,45.2089 C119.1211,45.7569 118.6671,46.1199 118.0701,46.2349 L115.3311,46.7659 L116.9201,49.6819 L118.3461,52.3959 L120.3851,57.4889 C121.0091,59.0469 123.6451,65.5599 124.5871,66.9599 C124.6801,67.0979 124.7211,67.4909 124.6721,67.6449 C124.4061,68.4819 122.3251,68.2929 120.9831,68.0529" id="Fill-3" fill="#E65024"></path>
        <path d="M26.6024,28.6773 C26.9954,28.5883 27.3624,28.2063 27.3024,27.7193 L26.9074,24.5243 C26.8054,23.6973 26.6124,22.9513 26.6324,22.1073 C26.6484,21.4533 26.5764,20.8433 26.3824,20.2193 C26.1924,19.6073 25.1234,19.3443 24.6134,19.7363 C24.3674,19.9243 24.1584,20.2293 24.1414,20.5683 C24.0774,21.8613 24.1014,23.1083 23.9644,24.3853 C23.8084,25.8303 23.2754,28.5663 23.8664,29.0063 C24.0004,29.1053 24.3914,29.1783 24.5554,29.1413 L26.6024,28.6773 Z M28.1834,35.3653 C27.7344,35.0943 27.2704,34.8763 26.7814,34.8543 C25.3824,34.7923 23.9974,34.9703 22.6624,35.2823 L22.4794,39.3373 L22.4214,45.1603 L22.1274,49.6373 C21.9804,51.8853 21.9844,54.0423 21.7214,56.2893 C21.4334,58.7483 21.4524,62.2923 21.3954,64.7553 C21.3634,66.1543 21.0394,67.9343 19.9184,67.5573 C19.3484,67.3663 18.7604,67.2123 18.1534,67.1933 L16.4744,67.1403 C16.3604,67.1363 16.1084,67.0243 16.0444,66.9353 C15.9674,66.8283 15.9604,66.5363 16.0024,66.3963 C16.2024,65.7323 16.2704,65.1533 16.3314,64.4743 L16.5634,59.2763 L16.8314,56.0513 L16.9654,52.1583 L17.3084,43.5363 L17.9974,34.4753 C18.3914,29.2963 18.7604,24.2403 19.5004,19.0993 C19.8864,16.4203 20.2764,13.8823 20.5194,11.1983 L21.1494,4.2323 L21.4904,0.6083 C22.3864,0.9513 23.1264,1.0203 23.9704,0.8523 L25.8434,0.4803 C26.5364,0.3423 27.2594,0.4623 27.9744,0.5013 C28.7374,0.5443 29.5664,0.8643 29.9064,1.6143 C30.0504,1.9343 29.9864,2.5083 30.0174,2.8773 L30.3274,6.5553 L30.7644,10.9223 C30.8984,12.2603 31.0044,13.5393 31.1724,14.8683 L31.6594,18.7343 L32.4454,25.6363 L32.9674,31.9203 L33.5794,38.6143 L34.9174,49.0173 L36.3084,57.9223 L37.5074,65.4773 C37.5684,65.8403 37.4364,66.2893 37.1574,66.4683 C36.6364,66.8043 36.0994,66.7423 35.5224,66.8083 L32.4194,67.1613 C31.9824,67.2113 31.6594,66.9843 31.6074,66.5493 L31.3224,64.1673 L31.0404,59.8203 L30.2334,53.7223 L29.1754,46.9403 L28.8894,42.2243 L28.1834,35.3653 Z" id="Fill-5" fill="#E65024"></path>
        <g id="Group-9" stroke-width="1" transform="translate(0, 0.0003)">
            <mask id="mask-3" fill="white">
                <use xlink:href="#path-2"></use>
            </mask>
            <g id="Clip-8"></g>
            <path d="M9.842,49.9486 L10.894,41.1466 C11.184,38.7156 11.163,36.4096 11.28,33.9656 L11.609,27.1066 C11.701,25.1826 11.825,23.4046 11.811,21.4766 C11.789,18.5486 11.874,15.7106 11.616,12.8026 C11.553,12.1016 11.328,11.4796 11.115,10.8296 L10.727,9.6446 C9.896,7.1096 9.099,7.3916 7.323,6.9316 C6.816,6.8006 6.283,6.9066 5.853,7.1356 C5.341,7.4076 5.227,7.8516 5.287,8.3846 C5.522,10.4916 5.588,12.4976 5.554,14.6366 L5.306,30.3286 L5.155,31.7366 C4.863,34.4746 5.25,37.1586 5.174,39.9186 L4.981,46.8966 C4.878,50.6426 4.716,55.6926 4.803,59.4406 C4.857,59.8406 5.226,60.5316 5.511,60.7576 C6.096,61.2226 6.93,61.0386 7.548,60.7156 C8.053,60.4516 8.433,59.8406 8.591,59.1646 C9.194,56.5966 9.52,52.6436 9.842,49.9486 L9.842,49.9486 Z M8.021,67.3036 C7.474,67.5716 6.878,67.7836 6.294,67.7996 L1.46,67.9380099 C0.963,67.9516 0.493,67.6056 0.459,67.1116 L0.205,63.4486 L0.135,55.2596 L0.137,51.5516 L0.052,45.2576 L0.076,36.2056 L0.006,29.2306 L0,25.0576 L0.271,15.8026 L0.338,7.3786 C0.354,5.4316 0.379,3.5946 0.352,1.6266 C0.348,1.3066 0.61,0.7226 0.908,0.6146 C1.318,0.4656 1.76,0.4646 2.165,0.3706 C3.227,0.1256 4.212,0.0306 5.32,0.0096 C7.431,-0.0304 9.567,0.0136 11.514,0.9046 C12.886,1.5326 13.743,2.8566 14.408,4.1426 C14.927,5.1446 15.221,6.1116 15.381,7.2226 L15.822,10.2786 C16.004,11.5476 16.048,12.7766 16.13,14.0546 L16.332,17.1726 C16.426,18.6246 16.48,19.9876 16.457,21.4476 L16.365,27.3776 L16.077,32.2146 C15.991,35.9146 15.658,39.5046 15.261,43.1946 L14.59,49.4266 C14.303,52.0916 14.202,56.1366 13.744,58.7746 C13.481,60.2956 13.027,61.7096 12.585,63.1926 C12.198,64.4916 11.145,65.6296 10.026,66.3206 L8.021,67.3036 Z" id="Fill-7" fill="#E65024" mask="url(#mask-3)"></path>
        </g>
        <path d="M62.8877,66.2574 L62.5577,63.2654 L62.4057,60.0294 L62.4247,47.4954 C62.2027,42.0724 62.2957,36.7834 62.7187,31.3794 L62.9227,24.6014 L63.2367,18.2544 C63.3717,15.5154 63.2467,12.8714 63.5487,10.1464 L63.6167,8.6254 C62.0877,8.6744 60.7227,8.4834 59.2407,8.3664 C58.0277,8.2704 56.8237,8.3724 55.6047,8.4204 C55.1877,8.4364 54.6937,8.3654 54.6507,7.8134 C54.5587,6.6144 54.5867,5.3964 54.6547,4.1844 L54.7867,1.8424 C54.8077,1.4684 55.1287,1.1874 55.4637,1.1334 C55.9457,1.0554 56.2637,1.1714 56.7177,1.3064 C57.5107,1.5414 58.4037,1.2764 59.2367,1.3574 L60.7867,1.5084 L63.8197,1.4924 C64.4317,1.4894 65.0497,1.4854 65.6457,1.3564 C66.5397,1.1634 67.3977,1.1284 68.3097,1.0674 L70.4607,0.9224 L72.5827,0.7084 L77.0587,0.7434 C77.9667,0.7504 79.0707,1.0694 79.0367,1.8124 C78.9747,3.1364 79.0347,4.3664 79.1817,5.6774 C79.2587,6.3604 79.2757,7.0544 79.2197,7.7134 C79.1747,8.2544 78.7477,8.4704 78.2517,8.4324 L76.4247,8.2954 L73.1957,8.1754 L70.1087,8.1964 L69.9387,11.5844 L69.6957,16.5784 C69.6537,18.2664 69.6677,19.8904 69.4727,21.5724 C69.2597,23.4034 69.1797,25.1394 69.2827,26.9804 L69.2277,30.7334 L69.0297,35.5254 L68.9547,41.1374 L68.3167,51.3804 C68.1947,55.5814 68.1307,59.6624 68.4437,63.8454 C68.5047,64.6504 68.5187,65.4444 68.2977,66.1984 C68.1747,66.6194 67.6067,66.7784 67.2447,66.9234 C66.0107,67.4164 64.7027,67.8304 63.3947,67.4764 C62.9267,67.3494 62.9337,66.6734 62.8877,66.2574" id="Fill-10" fill="#E65024"></path>
        <path d="M44.5975,44.3918 L44.6135,59.6218 C44.5935,61.9758 44.6645,64.1688 44.8685,66.5028 C44.9015,66.8868 44.7305,67.6078 44.2665,67.6088 L40.5475,67.6148032 C40.1185,67.6158 39.8415,67.3848 39.8255,66.9468 L39.7625,65.1638 L39.5215,60.4018 L39.2605,52.9628 L38.9925,46.6438 C38.8775,43.9298 38.6995,41.3468 38.7225,38.6208 L38.8385,24.7898 L38.6715,16.4488 L38.7065,13.0168 L38.7815,7.8058 L38.6675,1.3458 L38.9395,0.8648 C40.2135,0.9888 41.4095,0.8318 42.6835,0.8108 L45.9135,0.7558 L48.7235,0.7888 C49.5965,0.7998 50.4025,0.9098 51.2535,0.7248 C51.7325,0.6198 52.1675,0.9628 52.1645,1.4638 L52.1555,2.8968 L52.4705,7.0868 L52.8875,10.2078 C52.9095,10.3708 52.8385,10.7298 52.7265,10.8318 C52.6145,10.9338 52.3175,11.0248 52.1355,11.0178 C51.0365,10.9728 50.0615,11.0508 48.9835,11.1578 C47.7315,11.2828 46.4885,11.3878 45.2965,11.8158 L45.3005,15.7278 L47.7855,15.8028 C48.9725,15.8388 50.1305,15.8468 51.2795,16.0158 C51.8495,16.0998 52.1325,16.5268 52.1165,17.0638 C52.0755,18.4138 52.2315,19.6778 52.5485,20.9888 C52.6475,21.3998 52.6395,21.9388 52.3745,22.2648 C51.2975,22.4838 50.2435,22.6718 49.1485,22.6318 L44.9185,22.4758 C45.1685,23.5398 44.9865,24.3188 44.9405,25.2478 L44.8085,27.8848 L44.6395,31.6328 L44.4045,35.2708 C44.3005,36.8768 44.2995,38.4158 44.3785,40.0128 L44.5975,44.3918 Z" id="Fill-12" fill="#E65024"></path>
    </g>
</svg>