<?xml version="1.0" encoding="UTF-8"?>
<svg width="235px" height="322px" viewBox="0 0 235 322" version="1.1" xmlns="http://www.w3.org/2000/svg" xmlns:xlink="http://www.w3.org/1999/xlink">
    <title>Frame 1</title>
    <defs>
        <path d="M235,322 L0,322 L1.99387529e-07,0.000145816239 L235,0.000145816239 Z" id="path-1"></path>
        <polygon id="path-2" points="0 0 235 0 235 321.999854 0 321.999854"></polygon>
    </defs>
    <g id="Frame-1" stroke="none" fill="none" xlink:href="#path-1" fill-rule="evenodd">
        <path d="M128.558949,152.843953 C130.366265,150.808897 130.782416,148.089417 129.466774,145.817024 C128.718326,144.524686 126.014644,143.801226 124.994839,145.010809 C122.943249,147.444028 123.317734,152.778894 125.871934,153.561167 C126.567256,153.774562 127.994879,153.479453 128.558949,152.843953 L128.558949,152.843953 Z M128.013629,135.938935 C130.420953,135.028104 131.922015,132.573546 132.236602,130.295948 C132.609524,127.594164 130.607935,126.173789 128.258945,125.936973 C125.735995,125.682461 123.889616,126.282048 122.170323,128.326993 C121.504168,129.119676 120.74947,130.399002 120.78645,131.500847 C120.857284,133.622823 124.717231,137.186513 128.013629,135.938935 L128.013629,135.938935 Z M155.023884,133.868487 L159.876553,138.133777 L162.850551,140.659641 L158.305178,145.027464 C153.351987,149.786164 148.812343,154.822798 143.231019,158.926221 C140.749736,160.750484 137.706987,162.002747 134.854866,163.145709 C131.639719,164.433884 128.052692,164.713899 124.64848,164.881492 C121.292707,165.046483 118.370272,164.190302 115.453046,162.803757 C113.207182,161.736784 110.884756,160.86603 108.865979,159.407139 C105.630519,157.069167 102.729439,154.513116 99.8814845,151.728056 C93.8913006,145.869072 87.9891388,144.231138 86.182344,141.460131 L84.2442974,138.4877 C85.4266047,137.36972 86.9458958,135.56107 88.5183125,134.726229 C91.6621043,133.057587 95.1407964,132.621429 98.5595919,131.752237 C103.497678,130.497372 107.762318,128.114118 112.078522,125.526318 C113.665001,124.575411 115.522317,123.83946 116.728063,122.44771 C120.476029,118.121004 120.171858,108.739968 114.066048,105.446925 C106.732617,101.490797 101.729426,101.523587 94.4121409,105.787836 C91.9829419,107.203527 89.5027006,108.320466 87.2568374,110.011488 C84.7380539,111.908618 82.6270883,114.276258 80.4609137,116.463813 L79.4499628,116.476825 C79.2374599,116.479427 79.4270458,115.871513 79.5322555,115.611796 C80.8734192,112.30522 82.2062494,109.162073 83.0156352,105.691027 C84.3114857,100.13444 87.4188187,93.1465463 90.508964,88.2457565 C94.2251592,87.4504712 99.1267869,91.3904646 102.87267,93.7279165 C100.261698,95.0025591 95.7939301,96.7836235 95.6137194,98.552717 C95.5783022,98.9045579 96.5085229,99.2631649 96.8751945,99.108584 C101.520569,97.1489967 105.913856,94.9931905 110.830068,94.0402013 L119.826541,92.2966111 C123.732322,91.5398409 127.639666,91.947893 131.615761,92.0514675 L140.849217,92.2908859 C145.927409,92.422566 149.21287,99.848699 155.650976,97.4097545 L151.133729,94.5325704 C152.820209,93.7737183 154.649921,92.9997724 156.182233,91.8380729 C158.570286,90.0273414 160.912504,88.225458 163.995358,88.0495376 C166.071948,87.9313898 168.67667,88.2952016 169.466264,90.4749496 C170.45586,93.2095237 170.135023,96.3453838 170.210545,99.2834635 L170.416797,107.323757 L170.548049,115.971444 C167.70947,112.439502 164.626616,109.634664 160.66198,107.631878 C158.674454,106.627882 156.813492,104.956117 154.658775,104.307085 C150.708723,103.116239 146.424812,103.059507 142.372675,103.228141 C135.034035,103.53366 133.41943,112.945924 135.463728,120.094124 C136.064257,122.194239 137.264273,124.073153 139.237216,125.123991 L148.602966,130.113262 L155.023884,133.868487 Z" id="Fill-1" fill="#FFFAF0"></path>
        <path d="M112.471912,22.3371606 L110.349488,19.0815914 C108.796863,16.6993787 106.583292,14.3827458 106.243704,11.4337361 C106.038493,9.65579456 107.61091,7.3100151 108.7328,6.07128531 C114.515169,5.39102488 120.392851,10.6920597 125.018433,14.0829524 L112.471912,22.3371606 Z" id="Fill-3" fill="#FFFAF0"></path>
        <path d="M45.1263293,286.269932 L42.6742133,283.15385 C42.1393104,283.155412 41.4840933,283.201214 41.1794018,283.432304 C40.8741894,283.663916 41.1335678,284.63356 41.3288829,284.975512 L45.1263293,286.269932 Z M71.1506337,282.397601 C70.8881302,281.846418 69.5318621,281.509671 69.1037314,281.783961 C68.7401849,282.017134 68.2203864,282.752044 68.1698648,283.198611 C67.9985084,284.707988 69.447486,286.010216 70.9027137,285.562607 C71.5042842,285.074922 71.6667863,283.480188 71.1506337,282.397601 L71.1506337,282.397601 Z M103.266165,271.814789 L98.5082891,269.839587 C99.7864311,271.112668 101.468745,271.825719 103.266165,271.814789 L103.266165,271.814789 Z M28.146416,273.741586 L25.8916985,270.453227 C25.4187755,269.763598 25.0984588,269.097911 24.2526142,269.199403 C23.6755232,269.268626 23.1166616,270.531818 23.3536439,271.02731 L24.00209,272.384188 C24.1312584,272.654835 24.9474151,272.475271 25.2453357,272.534085 L28.146416,273.741586 Z M54.6212472,263.097358 L53.529566,261.482325 C52.7483056,260.32583 51.7279795,259.286963 50.1232707,259.296268 C47.8060524,259.309343 45.5586267,260.923335 45.0653909,263.210821 C44.74247,264.709268 45.9654029,265.996922 47.3050041,266.420589 C51.7675634,267.831596 55.5733432,264.505762 54.6212472,263.097358 L54.6212472,263.097358 Z M162.102885,253.23228 L162.379972,252.666004 L162.285179,250.502911 L161.988821,250.672586 L162.102885,253.23228 Z M93.1139466,258.492198 L90.9269383,252.814339 L88.7706596,241.458622 C88.4394052,241.699082 87.9633572,242.628129 88.009712,243.154849 C88.5039894,248.76973 90.1113025,253.973436 93.1139466,258.492198 L93.1139466,258.492198 Z M225.878733,221.167396 C225.655813,220.20712 224.713613,219.28588 223.853185,219.150556 C220.400014,218.607701 217.549455,228.072013 220.74429,229.585553 C223.458388,230.871126 226.918851,225.648162 225.878733,221.167396 L225.878733,221.167396 Z M221.326068,207.813576 C220.88075,206.913676 220.311992,206.208432 219.86459,206.037196 C219.366667,205.846182 218.192172,206.505623 218.206756,207.096362 C218.224985,207.825547 219.097393,208.548487 219.632816,208.567224 C220.173449,208.586481 221.090648,208.232558 221.326068,207.813576 L221.326068,207.813576 Z M206.479517,203.565462 C205.548254,202.822744 204.853974,202.657233 204.041984,202.821703 C203.307079,202.970559 202.76228,203.577953 202.438317,204.73705 L206.479517,203.565462 Z M156.307495,184.413034 C154.757995,180.792091 151.937125,177.845164 147.904779,176.453414 L151.938687,179.842746 L156.307495,184.413034 Z M125.123226,172.08455 L132.988956,170.094775 C124.947182,170.345644 117.62521,172.976643 110.677722,177.078504 C112.124095,176.965041 113.687658,176.457578 115.210595,175.722668 C118.404387,174.181022 121.555471,172.987053 125.123226,172.08455 L125.123226,172.08455 Z M189.640751,170.019827 C189.682939,169.265138 188.811573,168.072731 188.191253,167.898372 C186.639149,167.462734 182.757326,169.990159 182.773422,173.10416 C182.779201,174.232549 183.710985,175.472319 184.616726,175.802821 C187.018841,176.6793 189.454811,173.374286 189.640751,170.019827 L189.640751,170.019827 Z M73.4756646,166.43844 C72.9496159,166.189653 71.6850158,166.444686 71.1178207,166.534207 C70.1500995,166.686707 69.2636294,167.716726 69.7678028,168.711874 C71.1881342,171.51515 74.8069323,174.693689 76.6731029,173.041182 C78.4882312,171.434477 76.2137218,167.732861 73.4756646,166.43844 L73.4756646,166.43844 Z M197.012203,161.036954 C197.507001,161.214956 198.596599,159.946559 198.341388,159.489062 C198.040863,158.950891 197.599711,158.421568 197.195018,158.227431 C196.790325,158.033294 195.552809,158.603734 195.410619,158.984201 L197.012203,161.036954 Z M81.791921,156.171036 C81.791921,155.589145 81.3200397,155.117074 80.7377403,155.117074 C80.1554409,155.117074 79.6830388,155.589145 79.6830388,156.171036 C79.6830388,156.753447 80.1554409,157.224997 80.7377403,157.224997 C81.3200397,157.224997 81.791921,156.753447 81.791921,156.171036 L81.791921,156.171036 Z M175.679628,154.575781 C176.162447,153.857526 175.994736,152.356997 175.492125,151.790721 C173.921792,150.022148 170.433725,151.961957 168.403489,154.767315 L165.678974,158.532429 C165.355532,158.978997 165.503972,160.292154 165.830018,160.728833 C167.435247,162.878914 173.125948,158.372644 175.679628,154.575781 L175.679628,154.575781 Z M181.827626,147.770054 C182.285445,147.945454 183.054726,147.003394 183.001079,146.514669 C182.95785,146.120669 182.148464,145.423754 181.744292,145.550229 C180.977615,145.790168 180.86303,147.401037 181.827626,147.770054 L181.827626,147.770054 Z M57.465035,133.006789 C57.2358653,132.724171 56.366062,132.497765 56.0243908,132.60238 C54.5639548,133.048427 55.3967783,140.036841 57.9926462,139.66314 C59.8989215,139.38885 59.5858965,135.624256 57.465035,133.006789 L57.465035,133.006789 Z M41.3226328,131.475032 C41.1439846,130.348725 38.7679114,130.551189 38.524679,131.694672 C38.4179067,132.19693 39.6705275,133.220183 40.0762621,133.096831 L41.3226328,131.475032 Z M190.11107,298.766009 C192.690792,304.910734 197.489293,306.46331 201.096632,311.921528 C201.554451,312.61428 201.727891,314.047147 201.493513,314.825777 C200.647147,317.642586 193.867891,317.632697 189.740752,317.085157 C183.721922,316.286229 178.052576,314.776332 172.447814,312.432114 C168.786307,310.900357 165.526889,308.163701 163.94718,304.454798 C162.994042,302.216757 163.682593,299.483744 164.434687,297.224884 C167.977963,286.583779 173.445744,277.12311 179.750515,267.920076 L187.347491,255.108071 C190.169404,250.349892 193.10538,245.826446 194.883008,240.244355 C191.587131,243.331811 189.42304,246.922045 187.022487,250.508636 L177.123397,265.300007 C173.875437,270.153433 170.643623,274.586837 167.950358,279.870176 L161.667983,279.428292 L145.34537,277.400523 L138.640073,276.666654 C135.72493,276.347082 130.970179,277.04608 128.614939,278.598656 L118.601265,277.461419 C114.60017,277.007044 110.957413,276.105582 107.12455,274.948567 C103.360958,273.81237 99.5338236,273.425658 95.6082506,272.957231 C90.3321387,272.326936 85.424261,270.814957 80.5231541,268.851726 L72.5933612,265.109513 C74.6017212,268.488435 77.7658258,270.547433 81.0486819,272.416457 C90.1800534,277.614959 98.6713121,276.386118 106.393811,278.83339 C110.237091,280.051821 113.960578,280.728959 117.950735,281.370184 C122.669548,282.128515 127.144607,282.707804 131.963421,282.473069 L137.565058,282.760372 C138.645281,282.815542 139.757796,283.794555 139.860402,284.983319 L141.235941,300.913488 C141.230211,306.818274 140.086967,312.414417 138.481217,318.242693 C135.992642,318.501369 133.083228,317.791962 131.518103,315.725157 C128.169621,311.304245 126.162824,306.257722 124.111234,301.22265 C122.626318,297.578807 119.763259,295.324631 115.9205,295.059189 L89.2060821,293.213065 L53.4852946,291.18998 C48.6545012,290.91621 44.2169422,290.131334 39.5371924,289.037817 C33.415236,287.607552 27.7412022,284.810521 23.1427036,280.505155 C19.9676614,277.532724 19.4270292,272.753725 21.1572605,268.878791 C22.824991,265.143864 25.6385701,262.218276 29.290702,260.440855 C32.3063671,258.973116 35.3022403,257.793721 38.6356179,257.10253 L65.7099363,251.489211 C68.2854914,250.955204 70.9584436,250.329073 73.3043081,249.267304 C75.352252,248.339818 77.0064407,246.409378 78.8059438,244.803193 L72.391796,246.142374 C71.5167844,243.012239 70.6938567,240.007539 70.4662496,236.717098 C69.8766584,228.17819 70.6698981,219.959894 72.0449164,211.521959 C73.2152444,204.337846 73.7735852,197.366088 73.2996206,190.082565 C72.7615926,181.820549 70.1881209,171.074829 63.8942872,165.668138 L55.2514639,158.244086 L46.5492648,150.962645 L39.7663621,143.705146 C38.0132138,141.829355 36.4678808,139.714667 35.5069305,137.322565 L32.2636582,129.251043 C31.1652061,126.51699 30.6516576,123.592442 30.7750967,120.687673 C31.3589587,106.958071 37.8449824,96.479354 46.4695763,86.2775294 C49.9003511,82.2199086 53.2488331,78.5656558 57.0369043,74.7948166 L74.9209963,56.9930205 L83.4929853,49.1952685 L93.0181119,41.0024763 C103.990654,32.214261 115.357472,24.3483269 127.219608,16.8300699 L137.251513,10.4714305 C140.749997,8.25368777 144.226085,6.26547442 148.01051,4.56404263 C149.82043,3.7500202 151.629308,3.46844339 153.68871,3.62614723 C155.589777,3.77188014 157.941371,6.15773616 156.906462,8.09286109 C154.115279,13.3100995 149.710012,17.0288912 145.394329,20.9189191 C140.65312,25.1935778 136.083789,29.1059861 130.725384,32.6243951 L111.165749,45.4676287 C99.7155968,52.9853653 89.3779594,61.7168488 79.9033542,71.5803648 C75.7803827,75.8732402 72.3391911,80.1577879 68.6219542,84.7660709 C62.1499931,92.7891884 57.9525415,102.211862 57.2504488,112.63645 C56.6504408,121.537608 60.8260172,130.954037 67.7917348,136.427869 C71.7131411,139.51012 75.7866328,142.080745 80.2252335,144.381243 L88.156589,148.492473 L92.6160233,149.774402 C96.5468047,150.904873 102.257297,162.236648 118.4497,167.562665 C122.619026,168.934116 126.993043,168.429256 131.210286,167.798441 C134.672833,167.280568 137.591621,166.026745 140.639579,164.503836 C143.359927,163.144356 145.813606,161.832239 148.077698,159.777925 C149.7397,158.26959 151.487639,156.291786 153.393915,155.351809 L158.559088,153.401069 C163.343005,152.16234 167.255557,150.063786 171.175401,147.238128 C173.211887,145.77039 175.647336,144.93763 177.351004,142.998862 L183.146394,136.406009 C186.618315,132.455606 188.677717,127.744269 188.813657,122.280326 C188.999597,114.832333 187.772497,107.458768 185.865701,100.243947 L182.968266,92.786586 C181.22241,88.2928074 178.789565,84.5755771 175.906714,80.7625795 C172.555107,76.330217 169.139437,72.3314098 165.243552,68.3747612 L156.29812,60.2392212 L143.807329,49.4164703 L137.607767,44.2637708 C134.907211,42.0189634 132.707181,39.7444889 129.545681,37.6818477 L133.166042,35.1070594 L141.916679,28.7244782 L144.550568,31.9618308 L148.558434,36.3140402 L154.560076,42.3411372 L166.712842,53.8592423 L175.487438,62.1306262 L184.019322,71.2862966 L192.580894,80.4362418 L201.327886,90.7135353 C204.050318,93.9123728 206.163367,97.1715853 208.099851,100.932015 L212.860851,110.177728 C217.051011,120.926051 214.200973,135.747609 208.261311,145.576253 L199.971618,159.294404 L192.88819,170.229578 L187.128218,180.202394 C180.93751,190.921049 176.886936,200.326548 175.928589,213.090149 L171.171235,216.84173 C170.427995,220.718746 176.56141,217.086874 180.347919,214.426207 C189.860025,207.743312 200.463812,200.775717 212.072299,199.235112 C217.371328,198.531951 222.204726,199.65982 226.376135,202.88364 C228.675645,204.66002 230.219416,206.853821 230.697547,209.859042 C231.378285,214.137344 231.124636,218.425535 229.897536,222.648667 C228.388141,227.844045 227.185,232.990499 224.745384,237.855896 C220.697414,245.928979 215.529637,253.043348 210.270192,260.339883 L199.488799,275.299367 C195.647602,280.628507 192.554852,286.288669 190.120966,292.348036 C189.257413,294.497596 189.242829,296.697123 190.11107,298.766009 L190.11107,298.766009 Z" id="Fill-5" fill="#FFFAF0"></path>
        <path d="M25.2666381,211.534138 C21.6452358,211.43837 18.5352986,212.575087 15.361298,214.541961 L14.6013921,209.77129 C14.5347245,203.201338 15.1279616,196.916085 16.5217301,190.587113 C20.0134432,188.759726 24.0119339,189.23544 27.2791648,191.108629 L25.3265347,200.801949 C24.5994417,204.410921 24.6598592,208.018852 25.2666381,211.534138" id="Fill-7" fill="#FFFAF0"></path>
        <path d="M25.3517955,168.809463 C21.2178863,167.067954 17.5808588,169.089478 13.8261214,172.387726 L11.9406796,169.537607 C10.4042009,167.215249 8.56615558,165.386821 6.08799762,163.975814 C3.8004672,162.673066 2.3811775,159.562709 3.85723879,157.145625 C6.06455981,156.229589 9.21616422,156.415919 11.4687983,157.373072 L19.1793175,160.648419 C21.2355949,161.521776 22.8215535,163.326262 23.7429199,165.322282 L25.3517955,168.809463 Z" id="Fill-9" fill="#FFFAF0"></path>
        <path d="M35.2806254,239.468483 C32.4170457,237.687939 30.0690978,235.812669 27.6055233,233.596488 C27.5883356,230.113471 28.5706403,225.787285 31.6519313,224.876975 C35.2368748,229.35566 39.373909,232.866262 44.9588791,234.878417 C42.1119662,237.154453 40.9697636,240.065468 41.115078,243.546923 L35.2806254,239.468483 Z" id="Fill-11" fill="#FFFAF0"></path>
        <path d="M68.7004969,247.138094 L56.9404447,249.343346 C56.7789842,245.454879 58.7191142,241.203121 60.7733082,241.457633 L67.5530858,242.2982 L68.7004969,247.138094 Z" id="Fill-13" fill="#FFFAF0"></path>
        <path d="M150.481168,114.217496 C150.702004,116.889613 148.256138,118.97984 146.662367,118.462488 C145.217556,117.99354 144.024832,114.621384 145.650895,112.277166 C146.249861,111.413699 147.665505,110.835451 148.681665,111.350201 C149.735845,111.884728 150.399396,113.224951 150.481168,114.217496" id="Fill-15" fill="#FFFAF0"></path>
        <path d="M104.153052,117.405716 C103.097308,118.351939 100.872279,117.820534 100.206645,116.739508 C99.2936121,115.257717 99.7003883,112.88175 101.036864,111.897532 C102.111358,111.10589 104.109822,110.841489 104.952541,112.003188 C105.964013,113.39754 105.591612,116.11598 104.153052,117.405716" id="Fill-17" fill="#FFFAF0"></path>
        <g id="Group-21" stroke-width="1" transform="translate(0, 0.0001)">
            <mask id="mask-3" fill="white">
                <use xlink:href="#path-2"></use>
            </mask>
            <g id="Clip-20"></g>
            <path d="M68.7004969,247.137949 L67.5530858,242.298054 L60.7733082,241.457488 C58.7191142,241.202976 56.7789842,245.454733 56.9404447,249.3432 L68.7004969,247.137949 Z M35.2807817,239.468233 L41.1147134,243.547194 C40.9699198,240.065738 42.1121225,237.154203 44.9590354,234.878167 C39.3735444,232.866012 35.2370311,229.35541 31.6515667,224.876725 C28.5707966,225.787036 27.5884919,230.113221 27.6051588,233.596238 C30.069254,235.812419 32.4172019,237.68769 35.2807817,239.468233 L35.2807817,239.468233 Z M25.266586,211.533836 C24.6598071,208.01855 24.5993896,204.41114 25.3264826,200.801648 L27.2791128,191.108327 C24.0118818,189.235138 20.0133911,188.759424 16.521678,190.586811 C15.1279095,196.915784 14.5346724,203.201036 14.60134,209.770988 L15.3612459,214.54218 C18.5352465,212.575306 21.6451837,211.438069 25.266586,211.533836 L25.266586,211.533836 Z M25.3520038,168.809109 L23.7431282,165.322449 C22.8217618,163.325908 21.2358032,161.521943 19.1795259,160.648066 L11.4684858,157.372718 C9.21585172,156.416086 6.06476815,156.229235 3.85744713,157.145791 C2.38086499,159.562876 3.8001547,162.673233 6.08768512,163.975981 C8.56584307,165.386988 10.4038883,167.214895 11.9403671,169.537773 L13.8258089,172.387372 C17.5805463,169.089124 21.2180947,167.0676 25.3520038,168.809109 L25.3520038,168.809109 Z M83.046521,141.85997 C82.3173446,140.080987 80.9230553,140.562426 79.9272087,140.231925 C80.9767018,140.893969 82.0412993,141.477421 83.046521,141.85997 L83.046521,141.85997 Z M150.481272,114.217559 C150.398979,113.225013 149.73595,111.884271 148.681248,111.350263 C147.665609,110.835514 146.249966,111.413761 145.650999,112.276708 C144.024936,114.620927 145.21766,117.993082 146.66195,118.46203 C148.256242,118.979382 150.702108,116.889676 150.481272,114.217559 L150.481272,114.217559 Z M104.153052,117.405466 C105.591612,116.11573 105.964013,113.39729 104.952541,112.003459 C104.109822,110.84176 102.111358,111.10564 101.036864,111.897282 C99.7003883,112.8815 99.2936121,115.257467 100.206645,116.739259 C100.872279,117.820284 103.097308,118.351689 104.153052,117.405466 L104.153052,117.405466 Z M155.024041,133.868081 L148.603122,130.112856 L139.236852,125.123585 C137.264429,124.072747 136.064414,122.194354 135.463885,120.093718 C133.419587,112.946039 135.034192,103.533774 142.372831,103.228256 C146.424968,103.059622 150.708879,103.116354 154.658932,104.306679 C156.813127,104.956232 158.67461,106.627476 160.662136,107.631992 C164.626773,109.634779 167.709626,112.439617 170.547685,115.971038 L170.416954,107.323871 L170.210701,99.2835781 C170.135179,96.3454984 170.456017,93.2091179 169.465899,90.4750643 C168.676826,88.2947958 166.071583,87.930984 163.995514,88.0496522 C160.912661,88.2250522 158.569921,90.027456 156.181869,91.8381875 C154.650077,92.999887 152.819845,93.7738329 151.133885,94.532685 L155.651132,97.4093487 C149.212505,99.8488136 145.927566,92.4226806 140.849373,92.2910005 L131.615396,92.0510617 C127.639822,91.9480077 123.732479,91.539435 119.826177,92.2967257 L110.830224,94.040316 C105.913492,94.9933051 101.520725,97.1485909 96.8753507,99.1081781 C96.5081584,99.2632796 95.5779376,98.9046725 95.6138756,98.5523111 C95.7940864,96.7837381 100.261854,95.0026737 102.872826,93.7280311 C99.1269432,91.3905793 94.2247947,87.4505858 90.5085994,88.2453507 C87.418975,93.1466609 84.3111212,100.134034 83.0152706,105.690622 C82.2058848,109.161667 80.8735754,112.305335 79.5324118,115.61191 C79.427202,115.871627 79.2376162,116.479542 79.450119,116.476939 L80.46107,116.463927 C82.6267238,114.275852 84.7382102,111.908212 87.2569937,110.011603 C89.5028569,108.32058 91.9825773,107.203642 94.4122971,105.78743 C101.729582,101.523181 106.732253,101.490911 114.066204,105.446519 C120.172015,108.740083 120.476185,118.121119 116.728219,122.447825 C115.522474,123.839574 113.665157,124.575005 112.078678,125.526433 C107.762475,128.113713 103.497835,130.496966 98.5597481,131.752351 C95.1404318,132.621544 91.6622606,133.057702 88.5179479,134.726344 C86.9455312,135.561185 85.4262402,137.369835 84.2444536,138.487294 L86.1825002,141.460245 C87.9887742,144.231253 93.890936,145.869186 99.8816407,151.72765 C102.729074,154.51323 105.630155,157.069282 108.866135,159.407254 C110.884912,160.865624 113.207339,161.736378 115.453202,162.803872 C118.370428,164.189896 121.292863,165.046597 124.648637,164.881086 C128.052328,164.714014 131.639876,164.433999 134.855022,163.145303 C137.707144,162.002341 140.749372,160.750599 143.231176,158.925815 C148.8125,154.822913 153.351623,149.786279 158.305334,145.027058 L162.850707,140.659755 L159.876709,138.133891 L155.024041,133.868081 Z M163.541341,84.8221886 C167.085659,84.4927281 170.849251,85.873027 172.25552,89.1223505 C173.231574,91.3775674 173.308659,94.131399 173.326888,96.6177067 L173.418556,109.311564 L173.677414,118.431842 C173.881583,125.613873 179.698848,130.035826 173.761269,131.725807 C174.262317,132.49663 174.445653,134.432275 173.304492,134.66805 L170.802375,135.184361 C171.59249,136.241445 172.131039,138.58202 170.651853,139.306001 C168.105985,140.551496 166.055958,142.077008 164.094995,144.112064 L158.472003,149.946065 C161.423084,149.153902 163.833012,147.973986 166.122105,146.451077 L171.54874,142.841065 C173.021155,141.861531 174.382111,140.861179 175.557126,139.532407 L180.092603,134.40417 C183.415564,130.647383 185.282776,126.408117 185.270854,121.298617 C185.259859,116.541999 184.550996,111.948289 183.705672,107.248923 C182.947329,103.03516 181.690541,99.2263259 179.956664,95.3331751 C178.73321,92.5855892 177.850907,89.6943522 176.006091,87.2892386 L167.889837,76.7069471 C164.892401,73.3608152 161.963195,69.9969873 158.550129,67.0443343 L141.206149,52.0385282 L131.71071,43.4699533 L126.973147,39.2161136 C110.142194,49.8957339 94.324796,61.2545737 80.7777408,75.7966368 L71.4239706,86.9077307 C61.0300824,99.2544315 55.5055298,119.730947 68.3374712,132.135941 C71.4817839,135.175513 75.0625607,137.336524 78.710005,139.64535 C78.2422905,138.477925 78.0068707,137.229306 78.357917,136.033256 L79.3975142,132.491425 L77.9605159,130.279928 L79.0636555,124.958595 C78.109997,124.194018 77.2912361,123.134852 77.721971,121.682207 L78.4261471,119.308842 C77.4886346,119.126676 76.7396663,118.962206 76.3547654,118.614008 C76.0245526,118.315256 75.7146527,117.059871 75.8813216,116.562818 L77.5136349,111.704707 L79.8792914,104.407651 C80.7313861,101.779254 81.4454581,99.2507882 82.5308892,96.7030645 C83.9246577,93.4313606 85.3350931,90.3230857 87.2189723,87.3251514 C91.2263173,80.9477749 100.348834,88.2932343 105.897346,92.4591138 C108.67707,91.2536944 111.51617,90.7150031 114.467772,89.996748 C119.836073,88.6893156 125.003329,88.0028095 130.538298,88.5899049 L140.650933,88.865236 C143.849413,88.9521553 146.672888,90.8367942 148.979689,92.7974224 L153.740169,89.6527143 C156.795939,87.6337929 159.460558,85.2016146 163.541341,84.8221886 L163.541341,84.8221886 Z M112.471912,22.3371191 L125.018433,14.0823904 C120.392851,10.6920182 114.515169,5.39098337 108.7328,6.0712438 C107.61091,7.30997358 106.038493,9.65575305 106.243704,11.4336946 C106.583292,14.3827043 108.796863,16.6993372 110.349488,19.0815498 L112.471912,22.3371191 Z M190.110966,298.765916 C189.242725,296.697029 189.257308,294.497503 190.120862,292.347942 C192.554748,286.288576 195.648018,280.628414 199.488694,275.299273 L210.270609,260.339789 C215.529533,253.043255 220.69731,245.928886 224.74528,237.855803 C227.184896,232.990405 228.388037,227.843952 229.897432,222.648573 C231.124532,218.425441 231.378181,214.13725 230.697443,209.858948 C230.219832,206.853727 228.675541,204.659927 226.376031,202.883546 C222.204622,199.659726 217.371224,198.531857 212.072195,199.235019 C200.463707,200.775103 189.859921,207.743219 180.348336,214.426114 C176.561306,217.08678 170.428412,220.718653 171.17113,216.841116 L175.928485,213.090055 C176.886831,200.325934 180.937406,190.920956 187.128113,180.2023 L192.888086,170.229484 L199.971513,159.294311 L208.261207,145.576159 C214.200869,135.746995 217.050907,120.925957 212.860747,110.177634 L208.099746,100.931921 C206.163262,97.1714918 204.050213,93.9122792 201.328302,90.7134417 L192.581311,80.4361483 L184.019739,71.2862031 L175.487334,62.1305327 L166.713259,53.8591487 L154.559972,42.3410437 L148.55833,36.3139466 L144.550464,31.9617372 L141.917096,28.7238641 L133.165937,35.1069658 L129.545577,37.6817542 C132.707077,39.7438749 134.907106,42.0188698 137.607663,44.2636772 L143.807225,49.4158562 L156.298016,60.2391276 L165.243968,68.3746676 C169.139853,72.3313163 172.555003,76.3301234 175.90661,80.7624859 C178.789461,84.5754836 181.222306,88.2927139 182.968162,92.7864924 L185.865597,100.243854 C187.772914,107.458674 188.999492,114.832239 188.814073,122.280232 C188.677613,127.744176 186.618211,132.455513 183.14629,136.405915 L177.351421,142.998769 C175.647232,144.937016 173.211783,145.770296 171.175297,147.238035 C167.255453,150.063692 163.343422,152.162246 158.559504,153.400976 L153.393811,155.351715 C151.487535,156.291692 149.739595,158.269496 148.077594,159.777832 C145.813502,161.832145 143.359823,163.144262 140.639474,164.503742 C137.591517,166.026651 134.672728,167.280475 131.210182,167.798347 C126.992939,168.429162 122.618922,168.934023 118.449596,167.562572 C102.257193,162.236554 96.5467005,150.904779 92.6159191,149.774308 L88.1564848,148.491858 L80.2256502,144.381149 C75.7865286,142.080131 71.7135578,139.510027 67.7916307,136.427775 C60.825913,130.953943 56.6508575,121.537515 57.2503446,112.636356 C57.9524373,102.211769 62.149889,92.7890948 68.62185,84.7659773 C72.339087,80.1576943 75.7802785,75.8731466 79.9037709,71.5802713 C89.3778552,61.7167553 99.7154927,52.9852717 111.165645,45.4670147 L130.725801,32.6243015 C136.084205,29.1058925 140.653016,25.1934842 145.394746,20.9188255 C149.709907,17.0287976 154.115174,13.3100059 156.906357,8.09276753 C157.941788,6.1576426 155.589673,3.77178658 153.688606,3.62605367 C151.629725,3.46834983 149.820326,3.74940617 148.010406,4.5634286 C144.22598,6.26538086 140.749893,8.25359421 137.251929,10.4708164 L127.219504,16.8299763 C115.357367,24.3482333 103.99055,32.2141674 93.0180078,41.0023827 L83.4928811,49.195175 L74.9208921,56.9929269 L57.0368001,74.794723 C53.2487289,78.5655622 49.9002469,82.2198151 46.4694721,86.2774358 C37.8448783,96.4792604 31.3588545,106.957978 30.7749926,120.68758 C30.6515534,123.592349 31.1651019,126.516896 32.263554,129.25095 L35.5068263,137.322471 C36.4677766,139.714573 38.0131097,141.829262 39.7667788,143.705053 L46.5491607,150.962552 L55.2518806,158.243993 L63.8947038,165.668044 C70.1880167,171.074735 72.7614884,181.820456 73.2995164,190.081951 C73.7740019,197.365994 73.2151403,204.337753 72.0448122,211.521865 C70.6703148,219.959801 69.8765542,228.178096 70.4661454,236.717004 C70.6937526,240.007445 71.5166802,243.012146 72.3916918,246.142281 L78.8058396,244.803099 C77.0063365,246.408764 75.3521479,248.339725 73.304204,249.267211 C70.9583394,250.328979 68.2853872,250.95511 65.7098321,251.489117 L38.6355138,257.102437 C35.3021361,257.793627 32.3062629,258.973023 29.2911187,260.440241 C25.6384659,262.218183 22.8248869,265.143771 21.1571563,268.878697 C19.4274458,272.753631 19.9675572,277.53263 23.1425994,280.505061 C27.7410981,284.809907 33.4151319,287.607459 39.5370883,289.037723 C44.216838,290.131241 48.654397,290.916116 53.4851904,291.189886 L89.2064988,293.212971 L115.920396,295.059095 C119.763155,295.324537 122.626214,297.578193 124.11113,301.222556 C126.162719,306.257629 128.169517,311.304151 131.517999,315.725063 C133.083124,317.791868 135.992538,318.501276 138.481112,318.2426 C140.086863,312.414324 141.230107,306.81818 141.235836,300.913394 L139.860818,284.983225 C139.758213,283.794461 138.645177,282.815448 137.564954,282.760278 L131.963317,282.472976 C127.144503,282.70771 122.669444,282.128422 117.950631,281.37009 C113.960474,280.728345 110.237508,280.051728 106.394227,278.833296 C98.671208,276.386024 90.1799492,277.614865 81.0490986,272.416364 C77.7657216,270.547339 74.6021379,268.488341 72.593257,265.109419 L80.52305,268.851633 C85.4241568,270.814343 90.3320346,272.326842 95.6086672,272.957137 C99.5337194,273.425564 103.360854,273.812277 107.124966,274.948473 C110.95783,276.105488 114.600066,277.006951 118.60116,277.461325 L128.614835,278.598562 C130.970075,277.045986 135.724826,276.346989 138.639969,276.66604 L145.345266,277.40043 L161.667879,279.428199 L167.950254,279.870082 C170.64404,274.586743 173.875333,270.152819 177.123293,265.299913 L187.022383,250.508543 C189.422936,246.921952 191.587027,243.331717 194.882904,240.244261 C193.105276,245.826352 190.1693,250.349798 187.347908,255.107978 L179.750411,267.919983 C173.44564,277.123016 167.977859,286.583685 164.435103,297.22479 C163.68301,299.48365 162.994459,302.216663 163.947076,304.454704 C165.526784,308.163607 168.786203,310.900263 172.44771,312.4315 C178.052993,314.776238 183.722339,316.286135 189.740648,317.085064 C193.867786,317.632603 200.647564,317.642492 201.493929,314.825683 C201.727787,314.047053 201.554347,312.614186 201.096528,311.921434 C197.489189,306.463216 192.690687,304.91064 190.110966,298.765916 L190.110966,298.765916 Z M38.2282167,292.537395 C32.0786557,291.043633 26.63275,288.198198 21.7592477,284.230098 C16.8320988,280.21828 15.1674934,273.670187 17.5998174,267.77425 C22.5790503,255.706524 35.4854719,253.810434 47.3788592,251.227839 L43.1871368,248.549996 C39.8855304,247.120773 37.2495578,245.33086 34.3312899,243.320787 C27.940059,238.919133 22.1399819,234.633544 17.7951325,228.019872 C14.0695621,222.350341 11.207024,216.112972 11.0413968,209.12664 L11.3299423,199.769026 L12.7440236,189.996072 L12.7310026,182.085377 C12.7216275,176.399712 9.05074536,169.58878 4.55849812,166.93592 C1.15428618,164.925847 -0.466047864,161.467293 0.116251546,157.586113 C0.430318222,155.494846 1.6720014,153.86576 3.91630208,153.421274 C6.95280079,152.819606 10.3101371,152.898197 13.2435094,154.123395 L20.0649543,156.972994 C23.4389575,158.382439 25.8035723,160.91559 27.3806766,164.19406 C29.4541417,168.505672 31.0979135,172.885987 31.5541696,177.725361 C32.8859581,191.849483 27.2150494,201.457446 28.735903,209.727268 C30.2307145,217.857603 35.1995306,225.274888 42.2829581,229.544342 C46.0757169,231.830788 50.0731659,233.040891 54.0117599,234.891699 C58.2941085,236.904375 62.4853101,238.51056 67.0754753,239.524965 L66.714533,235.820226 C65.322327,221.524348 70.1854125,207.760394 69.5848837,191.807845 C69.4197773,187.418161 68.4989317,183.279867 67.480689,179.046846 C66.4723423,174.855984 64.468149,171.430219 61.425921,168.454145 C58.2654623,165.362005 55.0273984,162.701859 51.4851638,160.045876 C46.6528079,156.421811 42.5777537,152.389173 38.5402,147.963056 C35.8630811,145.028099 33.3312766,142.248244 31.9052159,138.485212 L28.047873,128.309932 C27.0890061,125.779904 26.9614002,123.042728 27.0811935,120.401839 C27.7437023,105.795237 34.5995226,94.5394512 43.8564165,83.6849514 C47.0976055,79.8849656 50.1986884,76.4040308 53.7763401,72.8653233 L73.5578532,53.3017203 C83.9600748,43.0140174 97.5420263,32.6321086 109.721876,24.2259218 C105.725989,18.7120128 100.282688,12.6984481 104.128572,7.06483 C104.978583,5.15000358 106.27183,2.79485557 108.64582,2.49714404 C115.270908,1.66646643 122.76632,7.74144711 127.796074,12.1238441 L135.810764,7.30112551 C140.985312,4.18712539 147.873946,-0.276465625 153.33131,0.0134387817 C157.311571,0.224751509 160.595469,3.1357665 160.758492,7.20119437 C160.807451,8.43367846 160.113171,10.1397945 159.378265,11.1474335 C157.195424,14.1417245 155.046958,17.0142243 152.280254,19.4724263 L144.321294,26.5435956 L149.434904,31.7764482 C157.636575,40.1706642 166.043458,47.991317 174.64201,55.9332404 L183.05358,64.5752023 L191.126083,73.2228894 L199.841824,82.8485485 L207.402341,92.3289952 C209.46591,94.9157544 210.763844,97.9319053 212.252406,100.884038 L216.508192,109.326658 C221.305651,122.112639 217.130075,138.485212 209.833624,150.022575 L197.670441,169.255676 L190.632848,181.304145 C185.40309,190.257871 181.20043,199.66441 179.736348,210.350276 C189.251058,203.875571 199.681405,197.028727 211.366977,195.559947 C217.586852,194.473716 223.474951,196.06793 228.48283,199.743523 C231.383389,201.872264 233.440708,204.555832 234.240719,208.165324 C235.141773,212.230752 235.325629,216.380496 234.32822,220.548978 C232.772991,227.049187 231.204741,233.502552 228.216681,239.550989 C224.138501,247.806238 218.804055,255.057492 213.50711,262.521619 L205.572109,273.704539 C201.532992,279.39697 191.139625,293.06932 194.250083,298.448947 C196.833451,302.916702 201.425179,304.891383 204.465844,310.245506 C206.611706,314.024152 205.183041,318.42945 201.101216,320.064261 C193.10111,323.269344 178.75821,319.268455 170.35289,315.705806 C167.370559,314.441573 165.210114,312.467933 163.101752,310.168476 C160.118379,306.914988 159.024615,302.901087 160.171505,298.458836 C161.480897,293.385769 163.643426,288.620303 165.899185,283.833497 L166.171064,283.400982 L154.344344,282.33453 L141.475944,280.277093 C142.959297,281.897851 143.714515,283.892831 143.887434,286.209464 L144.988491,300.938377 C144.904114,306.884801 143.763474,312.714638 142.209808,318.322753 C141.333234,321.487239 138.433195,322.415766 135.586803,321.83908 C132.31853,321.176515 129.663808,319.860755 127.782012,317.064245 C124.760097,312.573589 122.61163,307.859129 120.676709,302.783981 C120.075138,301.206942 118.685537,299.179693 116.897492,299.042288 L89.551295,296.945295 L53.554983,294.94407 C48.2705377,294.650522 43.3413055,293.779768 38.2282167,292.537395 L38.2282167,292.537395 Z" id="Fill-19" fill="#E65024" mask="url(#mask-3)"></path>
        </g>
        <path d="M175.679419,154.575833 C173.126261,158.372696 167.435039,162.878966 165.829809,160.728885 C165.503763,160.292206 165.355845,158.979049 165.679287,158.532482 L168.403281,154.767368 C170.434037,151.962009 173.921584,150.0222 175.491917,151.790773 C175.994528,152.357049 176.162759,153.857578 175.679419,154.575833" id="Fill-22" fill="#E65024"></path>
        <path d="M54.6214555,263.097462 C55.5735515,264.505866 51.7677717,267.8317 47.3046916,266.420693 C45.9650904,265.997027 44.7426783,264.709372 45.0655993,263.210925 C45.5583142,260.923439 47.8062607,259.309447 50.123479,259.296372 C51.7281879,259.287067 52.7485139,260.325934 53.5297743,261.481908 L54.6214555,263.097462 Z" id="Fill-24" fill="#E65024"></path>
        <path d="M225.878889,221.167187 C226.919007,225.647954 223.458544,230.870918 220.744446,229.585345 C217.549612,228.071805 220.40017,218.608013 223.853341,219.150348 C224.713769,219.285671 225.655969,220.207432 225.878889,221.167187" id="Fill-26" fill="#E65024"></path>
        <path d="M189.641011,170.01967 C189.454551,173.37465 187.019102,176.679665 184.616986,175.803185 C183.710724,175.472684 182.779462,174.232393 182.773165,173.104003 C182.757587,169.990524 186.639409,167.462578 188.191513,167.898736 C188.811834,168.072575 189.682679,169.264982 189.641011,170.01967" id="Fill-28" fill="#E65024"></path>
        <path d="M73.4757687,166.438492 C76.2133051,167.732913 78.4883354,171.434529 76.6732071,173.041234 C74.8070364,174.693741 71.1882383,171.515202 69.7679069,168.711926 C69.2637336,167.716778 70.1502037,166.686759 71.1179249,166.53426 C71.6851199,166.444738 72.9491992,166.189705 73.4757687,166.438492" id="Fill-30" fill="#E65024"></path>
        <path d="M57.4648787,133.006841 C59.5862611,135.624308 59.8987653,139.388902 57.9924899,139.663192 C55.3966221,140.036893 54.5643193,133.048479 56.0242346,132.602432 C56.3659058,132.497817 57.235709,132.724223 57.4648787,133.006841" id="Fill-32" fill="#E65024"></path>
        <path d="M125.123278,172.08455 C121.555523,172.987053 118.404439,174.181022 115.210647,175.722668 C113.68771,176.457578 112.124147,176.965041 110.677774,177.078504 C117.625262,172.977164 124.947234,170.345644 132.989008,170.094775 L125.123278,172.08455 Z" id="Fill-34" fill="#E65024"></path>
        <path d="M93.1141028,258.49225 C90.1114587,253.973488 88.5036248,248.769782 88.0098683,243.154901 C87.9635135,242.62766 88.4395615,241.699134 88.7708159,241.458674 L90.9270946,252.814391 L93.1141028,258.49225 Z" id="Fill-36" fill="#E65024"></path>
        <path d="M71.150842,282.397392 C71.6669947,283.47998 71.5044925,285.075235 70.902922,285.562399 C69.4476943,286.010528 67.9981959,284.70778 68.1700732,283.198403 C68.2205947,282.752356 68.7403933,282.016925 69.1034189,281.783753 C69.5315496,281.509463 70.8883385,281.84621 71.150842,282.397392" id="Fill-38" fill="#E65024"></path>
        <path d="M28.146468,273.741846 L25.2453878,272.533824 C24.9474672,272.475011 24.1313105,272.655095 24.0021421,272.384448 L23.353696,271.027571 C23.1167137,270.531558 23.6755753,269.268887 24.2526663,269.199663 C25.09799,269.098171 25.4188276,269.763338 25.8917506,270.452967 L28.146468,273.741846 Z" id="Fill-40" fill="#E65024"></path>
        <path d="M156.307287,184.412878 L151.938479,179.84311 L147.904571,176.453779 C151.937437,177.845528 154.757787,180.792456 156.307287,184.412878" id="Fill-42" fill="#E65024"></path>
        <path d="M45.1263293,286.269932 L41.3288829,284.975512 C41.1335678,284.63356 40.8741894,283.663916 41.1794018,283.432304 C41.4840933,283.201214 42.1393104,283.155412 42.6742133,283.15385 L45.1263293,286.269932 Z" id="Fill-44" fill="#E65024"></path>
        <path d="M221.326016,207.813472 C221.090596,208.232975 220.173397,208.586377 219.632764,208.56712 C219.097341,208.548382 218.224933,207.825443 218.206704,207.096779 C218.19212,206.505519 219.367136,205.846078 219.864538,206.037092 C220.31194,206.208328 220.880698,206.913571 221.326016,207.813472" id="Fill-46" fill="#E65024"></path>
        <path d="M197.011995,161.037006 L195.410411,158.984254 C195.553121,158.603266 196.790117,158.033346 197.19481,158.227483 C197.599503,158.42162 198.040654,158.950943 198.341179,159.489114 C198.596391,159.946611 197.506793,161.215008 197.011995,161.037006" id="Fill-48" fill="#E65024"></path>
        <path d="M41.3224245,131.474876 L40.0765746,133.096675 C39.67084,133.220548 38.4176984,132.196774 38.5244706,131.694516 C38.7682239,130.551033 41.1442971,130.348568 41.3224245,131.474876" id="Fill-50" fill="#E65024"></path>
        <path d="M206.479412,203.565462 L202.438213,204.73705 C202.762175,203.577953 203.306974,202.970559 204.04188,202.821703 C204.85387,202.657233 205.548671,202.822744 206.479412,203.565462" id="Fill-52" fill="#E65024"></path>
        <path d="M81.7920252,156.17114 C81.7920252,156.753031 81.3201439,157.225101 80.7378445,157.225101 C80.1550242,157.225101 79.6831429,156.753031 79.6831429,156.17114 C79.6831429,155.589249 80.1550242,155.117179 80.7378445,155.117179 C81.3201439,155.117179 81.7920252,155.589249 81.7920252,156.17114" id="Fill-54" fill="#E65024"></path>
        <path d="M181.82747,147.77021 C180.862874,147.401193 180.977459,145.790324 181.744656,145.550385 C182.148308,145.42391 182.957693,146.120825 183.001444,146.514825 C183.05509,147.003551 182.285289,147.94561 181.82747,147.77021" id="Fill-56" fill="#E65024"></path>
        <path d="M103.266009,271.81458 C101.46911,271.82551 99.7862749,271.112981 98.5081329,269.839899 L103.266009,271.81458 Z" id="Fill-58" fill="#E65024"></path>
        <polygon id="Fill-60" fill="#E65024" points="162.102885 253.232124 161.988821 250.67295 162.285179 250.502755 162.379972 252.665848"></polygon>
        <path d="M128.013838,135.938987 C124.71744,137.186565 120.856972,133.622875 120.786658,131.500899 C120.749679,130.399054 121.504376,129.119728 122.170531,128.326524 C123.889304,126.2821 125.735682,125.682513 128.259153,125.937025 C130.607622,126.173841 132.609732,127.594216 132.236811,130.296 C131.922223,132.573077 130.420641,135.028156 128.013838,135.938987" id="Fill-62" fill="#E65024"></path>
        <path d="M128.558949,152.843953 C127.994879,153.479453 126.567256,153.774562 125.871934,153.561167 C123.317734,152.778894 122.943249,147.444028 124.994839,145.010809 C126.014644,143.801226 128.718326,144.524686 129.466774,145.817024 C130.782416,148.089417 130.366265,150.808897 128.558949,152.843953" id="Fill-64" fill="#E65024"></path>
    </g>
</svg>